<?xml version="1.0" encoding="UTF-8"?>
<svg width="19px" height="34px" viewBox="0 0 19 34" version="1.1" xmlns="http://www.w3.org/2000/svg" xmlns:xlink="http://www.w3.org/1999/xlink">
    <!-- Generator: Sketch 46.2 (44496) - http://www.bohemiancoding.com/sketch -->
    <title>facebook</title>
    <desc>Created with Sketch.</desc>
    <defs></defs>
    <g id="Welcome" stroke="none" stroke-width="1" fill="none" fill-rule="evenodd">
        <g id="Desktop-HD-Copy-79" transform="translate(-330.000000, -4089.000000)" fill="#FFFFFF">
            <g id="Footer" transform="translate(-150.000000, 3998.000000)">
                <path d="M498.265625,91.3839286 L498.265625,96.6875 L495.111607,96.6875 C493.959816,96.6875 493.183038,96.928569 492.78125,97.4107143 C492.379462,97.8928596 492.178571,98.6160666 492.178571,99.5803571 L492.178571,103.377232 L498.064732,103.377232 L497.28125,109.323661 L492.178571,109.323661 L492.178571,124.571429 L486.03125,124.571429 L486.03125,109.323661 L480.908482,109.323661 L480.908482,103.377232 L486.03125,103.377232 L486.03125,98.9977679 C486.03125,96.506684 486.727672,94.5747836 488.120536,93.2020089 C489.5134,91.8292342 491.368292,91.1428571 493.685268,91.1428571 C495.654028,91.1428571 497.180798,91.2232135 498.265625,91.3839286 Z" id="facebook"></path>
            </g>
        </g>
    </g>
</svg>