<?xml version="1.0" encoding="UTF-8"?>
<svg width="47px" height="30px" viewBox="0 0 47 30" version="1.1" xmlns="http://www.w3.org/2000/svg" xmlns:xlink="http://www.w3.org/1999/xlink">
    <!-- Generator: Sketch 46.2 (44496) - http://www.bohemiancoding.com/sketch -->
    <title>google-plus</title>
    <desc>Created with Sketch.</desc>
    <defs></defs>
    <g id="Welcome" stroke="none" stroke-width="1" fill="none" fill-rule="evenodd">
        <g id="Desktop-HD-Copy-79" transform="translate(-663.000000, -4092.000000)" fill="#FFFFFF">
            <g id="Footer" transform="translate(-150.000000, 3998.000000)">
                <path d="M841.868304,109.484375 C841.868304,112.270103 841.28572,114.751105 840.120536,116.927455 C838.955351,119.103806 837.294654,120.804681 835.138393,122.030134 C832.982132,123.255586 830.511175,123.868304 827.725446,123.868304 C825.729901,123.868304 823.821438,123.479915 822,122.703125 C820.178562,121.926335 818.611614,120.881703 817.299107,119.569196 C815.986601,118.25669 814.941968,116.689741 814.165179,114.868304 C813.388389,113.046866 813,111.138403 813,109.142857 C813,107.147311 813.388389,105.238848 814.165179,103.417411 C814.941968,101.595973 815.986601,100.029024 817.299107,98.7165179 C818.611614,97.4040113 820.178562,96.3593789 822,95.5825893 C823.821438,94.8057997 825.729901,94.4174107 827.725446,94.4174107 C831.555823,94.4174107 834.843736,95.7031121 837.589286,98.2745536 L833.591518,102.111607 C832.024546,100.598207 830.069208,99.8415179 827.725446,99.8415179 C826.078117,99.8415179 824.554694,100.256692 823.155134,101.087054 C821.755573,101.917415 820.647326,103.045752 819.830357,104.472098 C819.013389,105.898445 818.604911,107.455349 818.604911,109.142857 C818.604911,110.830366 819.013389,112.38727 819.830357,113.813616 C820.647326,115.239962 821.755573,116.368299 823.155134,117.198661 C824.554694,118.029022 826.078117,118.444196 827.725446,118.444196 C828.837059,118.444196 829.858254,118.29018 830.789062,117.982143 C831.719871,117.674106 832.486604,117.289065 833.089286,116.827009 C833.691967,116.364953 834.217632,115.839289 834.666295,115.25 C835.114958,114.660711 835.443079,114.104913 835.65067,113.582589 C835.85826,113.060265 836.002232,112.564734 836.082589,112.095982 L827.725446,112.095982 L827.725446,107.033482 L841.627232,107.033482 C841.787947,107.877236 841.868304,108.694192 841.868304,109.484375 Z M859.285714,107.033482 L859.285714,111.252232 L855.087054,111.252232 L855.087054,115.450893 L850.868304,115.450893 L850.868304,111.252232 L846.669643,111.252232 L846.669643,107.033482 L850.868304,107.033482 L850.868304,102.834821 L855.087054,102.834821 L855.087054,107.033482 L859.285714,107.033482 Z" id="google-plus"></path>
            </g>
        </g>
    </g>
</svg>