<?xml version="1.0" encoding="UTF-8"?>
<svg width="32px" height="32px" viewBox="0 0 32 32" version="1.1" xmlns="http://www.w3.org/2000/svg" xmlns:xlink="http://www.w3.org/1999/xlink">
    <!-- Generator: Sketch 46.2 (44496) - http://www.bohemiancoding.com/sketch -->
    <title>instagram</title>
    <desc>Created with Sketch.</desc>
    <defs></defs>
    <g id="Welcome" stroke="none" stroke-width="1" fill="none" fill-rule="evenodd">
        <g id="Desktop-HD-Copy-79" transform="translate(-582.000000, -4091.000000)" fill="#FFFFFF">
            <g id="Footer" transform="translate(-150.000000, 3998.000000)">
                <path d="M753.321429,109.142857 C753.321429,107.723207 752.819201,106.511166 751.814732,105.506696 C750.810263,104.502227 749.598221,104 748.178571,104 C746.758921,104 745.54688,104.502227 744.542411,105.506696 C743.537941,106.511166 743.035714,107.723207 743.035714,109.142857 C743.035714,110.562507 743.537941,111.774549 744.542411,112.779018 C745.54688,113.783487 746.758921,114.285714 748.178571,114.285714 C749.598221,114.285714 750.810263,113.783487 751.814732,112.779018 C752.819201,111.774549 753.321429,110.562507 753.321429,109.142857 Z M756.09375,109.142857 C756.09375,111.339297 755.323668,113.207582 753.783482,114.747768 C752.243296,116.287954 750.375011,117.058036 748.178571,117.058036 C745.982132,117.058036 744.113847,116.287954 742.573661,114.747768 C741.033474,113.207582 740.263393,111.339297 740.263393,109.142857 C740.263393,106.946418 741.033474,105.078133 742.573661,103.537946 C744.113847,101.99776 745.982132,101.227679 748.178571,101.227679 C750.375011,101.227679 752.243296,101.99776 753.783482,103.537946 C755.323668,105.078133 756.09375,106.946418 756.09375,109.142857 Z M758.263393,100.90625 C758.263393,101.415181 758.082591,101.850445 757.720982,102.212054 C757.359373,102.573663 756.92411,102.754464 756.415179,102.754464 C755.906247,102.754464 755.470984,102.573663 755.109375,102.212054 C754.747766,101.850445 754.566964,101.415181 754.566964,100.90625 C754.566964,100.397319 754.747766,99.9620554 755.109375,99.6004464 C755.470984,99.2388375 755.906247,99.0580357 756.415179,99.0580357 C756.92411,99.0580357 757.359373,99.2388375 757.720982,99.6004464 C758.082591,99.9620554 758.263393,100.397319 758.263393,100.90625 Z M748.178571,96.4866071 C748.084821,96.4866071 747.572549,96.483259 746.641741,96.4765625 C745.710933,96.469866 745.004467,96.469866 744.522321,96.4765625 C744.040176,96.483259 743.393977,96.503348 742.583705,96.5368304 C741.773433,96.5703127 741.083708,96.6372763 740.514509,96.7377232 C739.94531,96.8381701 739.46652,96.9620528 739.078125,97.109375 C738.408479,97.3772335 737.819199,97.7656225 737.310268,98.2745536 C736.801337,98.7834847 736.412948,99.3727645 736.145089,100.042411 C735.997767,100.430806 735.873884,100.909595 735.773438,101.478795 C735.672991,102.047994 735.606027,102.737719 735.572545,103.547991 C735.539062,104.358263 735.518973,105.004462 735.512277,105.486607 C735.50558,105.968752 735.50558,106.675219 735.512277,107.606027 C735.518973,108.536835 735.522321,109.049107 735.522321,109.142857 C735.522321,109.236608 735.518973,109.748879 735.512277,110.679688 C735.50558,111.610496 735.50558,112.316962 735.512277,112.799107 C735.518973,113.281252 735.539062,113.927451 735.572545,114.737723 C735.606027,115.547995 735.672991,116.23772 735.773438,116.80692 C735.873884,117.376119 735.997767,117.854909 736.145089,118.243304 C736.412948,118.91295 736.801337,119.50223 737.310268,120.011161 C737.819199,120.520092 738.408479,120.908481 739.078125,121.176339 C739.46652,121.323661 739.94531,121.447544 740.514509,121.547991 C741.083708,121.648438 741.773433,121.715402 742.583705,121.748884 C743.393977,121.782366 744.040176,121.802455 744.522321,121.809152 C745.004467,121.815848 745.710933,121.815848 746.641741,121.809152 C747.572549,121.802455 748.084821,121.799107 748.178571,121.799107 C748.272322,121.799107 748.784594,121.802455 749.715402,121.809152 C750.64621,121.815848 751.352676,121.815848 751.834821,121.809152 C752.316967,121.802455 752.963166,121.782366 753.773438,121.748884 C754.583709,121.715402 755.273435,121.648438 755.842634,121.547991 C756.411833,121.447544 756.890623,121.323661 757.279018,121.176339 C757.948664,120.908481 758.537944,120.520092 759.046875,120.011161 C759.555806,119.50223 759.944195,118.91295 760.212054,118.243304 C760.359376,117.854909 760.483258,117.376119 760.583705,116.80692 C760.684152,116.23772 760.751116,115.547995 760.784598,114.737723 C760.818081,113.927451 760.83817,113.281252 760.844866,112.799107 C760.851563,112.316962 760.851563,111.610496 760.844866,110.679688 C760.83817,109.748879 760.834821,109.236608 760.834821,109.142857 C760.834821,109.049107 760.83817,108.536835 760.844866,107.606027 C760.851563,106.675219 760.851563,105.968752 760.844866,105.486607 C760.83817,105.004462 760.818081,104.358263 760.784598,103.547991 C760.751116,102.737719 760.684152,102.047994 760.583705,101.478795 C760.483258,100.909595 760.359376,100.430806 760.212054,100.042411 C759.944195,99.3727645 759.555806,98.7834847 759.046875,98.2745536 C758.537944,97.7656225 757.948664,97.3772335 757.279018,97.109375 C756.890623,96.9620528 756.411833,96.8381701 755.842634,96.7377232 C755.273435,96.6372763 754.583709,96.5703127 753.773438,96.5368304 C752.963166,96.503348 752.316967,96.483259 751.834821,96.4765625 C751.352676,96.469866 750.64621,96.469866 749.715402,96.4765625 C748.784594,96.483259 748.272322,96.4866071 748.178571,96.4866071 Z M763.607143,109.142857 C763.607143,112.209837 763.573661,114.332583 763.506696,115.511161 C763.372767,118.296889 762.542418,120.453117 761.015625,121.979911 C759.488832,123.506704 757.332603,124.337053 754.546875,124.470982 C753.368298,124.537947 751.245551,124.571429 748.178571,124.571429 C745.111592,124.571429 742.988845,124.537947 741.810268,124.470982 C739.02454,124.337053 736.868311,123.506704 735.341518,121.979911 C733.814725,120.453117 732.984376,118.296889 732.850446,115.511161 C732.783482,114.332583 732.75,112.209837 732.75,109.142857 C732.75,106.075878 732.783482,103.953131 732.850446,102.774554 C732.984376,99.9888254 733.814725,97.8325969 735.341518,96.3058036 C736.868311,94.7790102 739.02454,93.9486614 741.810268,93.8147321 C742.988845,93.7477675 745.111592,93.7142857 748.178571,93.7142857 C751.245551,93.7142857 753.368298,93.7477675 754.546875,93.8147321 C757.332603,93.9486614 759.488832,94.7790102 761.015625,96.3058036 C762.542418,97.8325969 763.372767,99.9888254 763.506696,102.774554 C763.573661,103.953131 763.607143,106.075878 763.607143,109.142857 Z" id="instagram"></path>
            </g>
        </g>
    </g>
</svg>