<?xml version="1.0" encoding="UTF-8"?>
<svg width="32px" height="26px" viewBox="0 0 32 26" version="1.1" xmlns="http://www.w3.org/2000/svg" xmlns:xlink="http://www.w3.org/1999/xlink">
    <!-- Generator: Sketch 46.2 (44496) - http://www.bohemiancoding.com/sketch -->
    <title>twitter</title>
    <desc>Created with Sketch.</desc>
    <defs></defs>
    <g id="Welcome" stroke="none" stroke-width="1" fill="none" fill-rule="evenodd">
        <g id="Desktop-HD-Copy-79" transform="translate(-491.000000, -4094.000000)" fill="#FFFFFF">
            <g id="Footer" transform="translate(-150.000000, 3998.000000)">
                <path d="M673.044643,99.3392857 C672.147317,100.651792 671.062506,101.770085 669.790179,102.694196 C669.803571,102.881697 669.810268,103.162945 669.810268,103.537946 C669.810268,105.279027 669.555806,107.016732 669.046875,108.751116 C668.537944,110.4855 667.764514,112.149546 666.726562,113.743304 C665.688611,115.337062 664.453132,116.746646 663.020089,117.972098 C661.587046,119.197551 659.859385,120.17522 657.837054,120.905134 C655.814722,121.635048 653.651797,122 651.348214,122 C647.718732,122 644.397336,121.029028 641.383929,119.087054 C641.852681,119.140625 642.374997,119.167411 642.950893,119.167411 C645.964301,119.167411 648.649542,118.243313 651.006696,116.395089 C649.600439,116.368303 648.341523,115.936388 647.229911,115.09933 C646.118298,114.262273 645.354913,113.194203 644.939732,111.895089 C645.381699,111.962054 645.790177,111.995536 646.165179,111.995536 C646.741074,111.995536 647.310265,111.921876 647.872768,111.774554 C646.37276,111.466516 645.130585,110.719872 644.146205,109.534598 C643.161825,108.349324 642.669643,106.973222 642.669643,105.40625 L642.669643,105.325893 C643.580362,105.834824 644.55803,106.109375 645.602679,106.149554 C644.718746,105.560265 644.015628,104.790183 643.493304,103.839286 C642.97098,102.888388 642.709821,101.857148 642.709821,100.745536 C642.709821,99.5669584 643.004461,98.4754515 643.59375,97.4709821 C645.214294,99.4665278 647.186372,101.06361 649.510045,102.262277 C651.833717,103.460943 654.321415,104.127231 656.973214,104.261161 C656.866071,103.75223 656.8125,103.256699 656.8125,102.774554 C656.8125,100.979902 657.445306,99.4497831 658.710938,98.1841518 C659.976569,96.9185205 661.506687,96.2857143 663.301339,96.2857143 C665.176349,96.2857143 666.75669,96.9687432 668.042411,98.3348214 C669.502239,98.05357 670.874994,97.5312538 672.160714,96.7678571 C671.665176,98.3080434 670.714293,99.4999958 669.308036,100.34375 C670.553578,100.209821 671.799101,99.8750027 673.044643,99.3392857 Z" id="twitter"></path>
            </g>
        </g>
    </g>
</svg>