<?xml version="1.0" encoding="UTF-8"?>
<svg width="31px" height="37px" viewBox="0 0 31 37" version="1.1" xmlns="http://www.w3.org/2000/svg" xmlns:xlink="http://www.w3.org/1999/xlink">
    <!-- Generator: Sketch 46.2 (44496) - http://www.bohemiancoding.com/sketch -->
    <title>youtube</title>
    <desc>Created with Sketch.</desc>
    <defs></defs>
    <g id="Welcome" stroke="none" stroke-width="1" fill="none" fill-rule="evenodd">
        <g id="Desktop-HD-Copy-79" transform="translate(-403.000000, -4089.000000)" fill="#FFFFFF">
            <g id="Footer" transform="translate(-150.000000, 3998.000000)">
                <path d="M572.756696,116.133929 L572.756696,120.372768 C572.756696,121.270094 572.495538,121.71875 571.973214,121.71875 C571.665177,121.71875 571.363841,121.57143 571.069196,121.276786 L571.069196,115.229911 C571.363841,114.935266 571.665177,114.787946 571.973214,114.787946 C572.495538,114.787946 572.756696,115.236603 572.756696,116.133929 Z M579.546875,116.154018 L579.546875,117.078125 L577.738839,117.078125 L577.738839,116.154018 C577.738839,115.243299 578.040176,114.787946 578.642857,114.787946 C579.245539,114.787946 579.546875,115.243299 579.546875,116.154018 Z M560.140625,111.774554 L562.290179,111.774554 L562.290179,109.886161 L556.022321,109.886161 L556.022321,111.774554 L558.131696,111.774554 L558.131696,123.205357 L560.140625,123.205357 L560.140625,111.774554 Z M565.926339,123.205357 L567.714286,123.205357 L567.714286,113.28125 L565.926339,113.28125 L565.926339,120.875 C565.524552,121.437503 565.142859,121.71875 564.78125,121.71875 C564.540177,121.71875 564.399554,121.578126 564.359375,121.296875 C564.345982,121.256696 564.339286,121.022324 564.339286,120.59375 L564.339286,113.28125 L562.551339,113.28125 L562.551339,121.136161 C562.551339,121.792414 562.60491,122.281248 562.712054,122.602679 C562.872769,123.098217 563.261158,123.345982 563.877232,123.345982 C564.520093,123.345982 565.203121,122.937504 565.926339,122.120536 L565.926339,123.205357 Z M574.544643,120.232143 L574.544643,116.274554 C574.544643,115.29687 574.484376,114.63393 574.363839,114.285714 C574.13616,113.535711 573.660718,113.160714 572.9375,113.160714 C572.267854,113.160714 571.645092,113.522318 571.069196,114.245536 L571.069196,109.886161 L569.28125,109.886161 L569.28125,123.205357 L571.069196,123.205357 L571.069196,122.241071 C571.671878,122.977682 572.29464,123.345982 572.9375,123.345982 C573.660718,123.345982 574.13616,122.977682 574.363839,122.241071 C574.484376,121.879462 574.544643,121.209826 574.544643,120.232143 Z M581.334821,120.03125 L581.334821,119.770089 L579.506696,119.770089 C579.506696,120.453128 579.493304,120.861606 579.466518,120.995536 C579.372767,121.477681 579.104913,121.71875 578.662946,121.71875 C578.046872,121.71875 577.738839,121.256701 577.738839,120.332589 L577.738839,118.584821 L581.334821,118.584821 L581.334821,116.515625 C581.334821,115.457584 581.15402,114.680806 580.792411,114.185268 C580.270087,113.502229 579.560272,113.160714 578.662946,113.160714 C577.752228,113.160714 577.035717,113.502229 576.513393,114.185268 C576.138391,114.680806 575.950893,115.457584 575.950893,116.515625 L575.950893,119.991071 C575.950893,121.049112 576.145087,121.82589 576.533482,122.321429 C577.055806,123.004468 577.779013,123.345982 578.703125,123.345982 C579.667416,123.345982 580.390623,122.991075 580.872768,122.28125 C581.11384,121.919641 581.254464,121.558038 581.294643,121.196429 C581.321429,121.075892 581.334821,120.687503 581.334821,120.03125 Z M569.120536,101.689732 L569.120536,97.4709821 C569.120536,96.5468704 568.832592,96.0848214 568.256696,96.0848214 C567.680801,96.0848214 567.392857,96.5468704 567.392857,97.4709821 L567.392857,101.689732 C567.392857,102.627237 567.680801,103.095982 568.256696,103.095982 C568.832592,103.095982 569.120536,102.627237 569.120536,101.689732 Z M583.564732,116.776786 C583.564732,119.91073 583.390627,122.254457 583.042411,123.808036 C582.85491,124.598218 582.466521,125.261158 581.877232,125.796875 C581.287943,126.332592 580.604915,126.640625 579.828125,126.720982 C577.363827,127.002234 573.647346,127.142857 568.678571,127.142857 C563.709797,127.142857 559.993316,127.002234 557.529018,126.720982 C556.752228,126.640625 556.065851,126.332592 555.469866,125.796875 C554.873881,125.261158 554.48884,124.598218 554.314732,123.808036 C553.966516,122.308028 553.792411,119.964302 553.792411,116.776786 C553.792411,113.642841 553.966516,111.299115 554.314732,109.745536 C554.502233,108.955353 554.890622,108.292413 555.479911,107.756696 C556.069199,107.220979 556.758925,106.90625 557.549107,106.8125 C560.000012,106.544642 563.709797,106.410714 568.678571,106.410714 C573.647346,106.410714 577.363827,106.544642 579.828125,106.8125 C580.604915,106.90625 581.291292,107.220979 581.887277,107.756696 C582.483262,108.292413 582.868303,108.955353 583.042411,109.745536 C583.390627,111.245543 583.564732,113.58927 583.564732,116.776786 Z M563.515625,91.1428571 L565.564732,91.1428571 L563.133929,99.1584821 L563.133929,104.602679 L561.125,104.602679 L561.125,99.1584821 C560.937499,98.1674058 560.529021,96.7477771 559.899554,94.8995536 C559.404015,93.5200824 558.968752,92.2678628 558.59375,91.1428571 L560.723214,91.1428571 L562.149554,96.4263393 L563.515625,91.1428571 Z M570.948661,97.8325893 L570.948661,101.348214 C570.948661,102.433041 570.761163,103.223212 570.386161,103.71875 C569.87723,104.401789 569.167415,104.743304 568.256696,104.743304 C567.359371,104.743304 566.656253,104.401789 566.147321,103.71875 C565.77232,103.209819 565.584821,102.419648 565.584821,101.348214 L565.584821,97.8325893 C565.584821,96.7611554 565.77232,95.977681 566.147321,95.4821429 C566.656253,94.7991037 567.359371,94.4575893 568.256696,94.4575893 C569.167415,94.4575893 569.87723,94.7991037 570.386161,95.4821429 C570.761163,95.977681 570.948661,96.7611554 570.948661,97.8325893 Z M577.678571,94.578125 L577.678571,104.602679 L575.850446,104.602679 L575.850446,103.497768 C575.140621,104.328129 574.450896,104.743304 573.78125,104.743304 C573.165175,104.743304 572.77009,104.495538 572.595982,104 C572.488839,103.67857 572.435268,103.176343 572.435268,102.493304 L572.435268,94.578125 L574.263393,94.578125 L574.263393,101.950893 C574.263393,102.392859 574.270089,102.627232 574.283482,102.654018 C574.323661,102.948662 574.464285,103.095982 574.705357,103.095982 C575.066966,103.095982 575.448659,102.808039 575.850446,102.232143 L575.850446,94.578125 L577.678571,94.578125 Z" id="youtube"></path>
            </g>
        </g>
    </g>
</svg>