<?xml version="1.0" encoding="UTF-8"?>
<svg width="114px" height="102px" viewBox="0 0 114 102" version="1.1" xmlns="http://www.w3.org/2000/svg" xmlns:xlink="http://www.w3.org/1999/xlink">
    <!-- Generator: Sketch 46.2 (44496) - http://www.bohemiancoding.com/sketch -->
    <title>atom</title>
    <desc>Created with Sketch.</desc>
    <defs></defs>
    <g id="Welcome" stroke="none" stroke-width="1" fill="none" fill-rule="evenodd">
        <g id="Tablet" transform="translate(-39.000000, -2823.000000)" fill-rule="nonzero" fill="#0072BB">
            <g id="Group-9" transform="translate(39.000000, 2817.000000)">
                <g id="atom" transform="translate(0.000000, 6.000000)">
                    <path d="M106.528391,39.3263429 C105.707591,38.7466429 104.572685,38.9426286 103.993226,39.7649429 C103.414009,40.5870143 103.609991,41.7233429 104.431034,42.3032857 C107.136472,44.2140857 110.36146,47.2692286 110.36146,50.9718286 C110.36146,56.7030143 102.3606,62.6811857 88.8593617,66.4666 C87.3458298,61.3981714 85.3151745,56.1004857 82.8314298,50.7442714 C85.2179106,45.5313429 87.1774979,40.3725714 88.6461574,35.4491286 C92.1949532,36.4297857 95.4536553,37.5814143 98.3371277,38.8896857 C98.5806511,39.0001857 98.835817,39.0526429 99.0868596,39.0526429 C99.7791064,39.0526429 100.440549,38.6548429 100.744711,37.9826143 C101.159477,37.0665571 100.753928,35.9870571 99.8387745,35.5717714 C96.7935191,34.1899143 93.3560553,32.9756286 89.6192809,31.9439714 C90.402,28.8866429 90.9773362,25.9444286 91.3304936,23.1627429 C92.8037617,22.8319714 94.1016638,21.8996429 94.8717702,20.5644143 C95.6006426,19.3005857 95.7942,17.8279 95.4170298,16.4181143 C95.039617,15.0080857 94.1365915,13.8299857 92.8743447,13.1002 C92.4253787,12.8405857 91.9424553,12.6499429 91.4432809,12.5270571 C90.7047064,7.28425714 88.5903702,3.52118571 85.2717574,1.6031 C79.6644128,-1.63807143 71.4496213,0.727842857 62.1406723,8.26564286 C60.3998681,9.67518571 58.6537277,11.2384571 56.9146213,12.9360286 C55.1563532,11.2168429 53.3910511,9.63438571 51.6308426,8.2093 C42.3218936,0.671742857 34.1071021,-1.69465714 28.4997574,1.54675714 C25.1551915,3.48014286 23.0335787,7.28595714 22.3110128,12.5936 C21.8991574,12.7152714 21.5001574,12.8833286 21.1251702,13.1002 C19.8626809,13.8299857 18.9596553,15.0080857 18.5822426,16.4181143 C18.2050723,17.8281429 18.3986298,19.3005857 19.1275021,20.5644143 C19.8575872,21.8306714 21.0618638,22.7362857 22.4405362,23.1088286 C22.7980596,25.9240286 23.383583,28.9036429 24.1808553,32.0008 C21.1499106,32.8447286 18.3195574,33.8091143 15.7387915,34.8859429 C14.7593617,33.9528857 13.436234,33.3782857 11.9809149,33.3782857 C8.97155745,33.3782857 6.52346809,35.8296857 6.52346809,38.8425714 C6.52346809,39.2197286 6.56179149,39.5881429 6.6348,39.9439286 C2.28897447,43.2582 0,47.0499286 0,50.9718286 C0,57.4546571 6.15405957,63.3947 17.3282426,67.6978857 C19.4173532,68.5024714 21.6420511,69.2346857 23.9790511,69.8938 C23.0161149,73.6155857 22.3568553,77.1707714 22.0323191,80.4743571 C21.9338426,81.4754143 22.6646553,82.3669429 23.6644596,82.4653 C23.7250979,82.4711286 23.7852511,82.4742857 23.8446766,82.4742857 C24.7692894,82.4740429 25.5604979,81.7712143 25.6529106,80.8308714 C25.959983,77.7067571 26.5848,74.3395429 27.4965574,70.8091286 C32.6139447,72.0353143 38.1887872,72.9292714 44.0413532,73.4623429 C47.364817,78.1713429 50.8585532,82.4842429 54.3961915,86.2499857 C44.3118,96.1736143 35.0722213,100.178329 30.0909064,97.2985286 C26.888234,95.4472286 25.8581106,91.1231571 25.5580723,87.822 C25.4668723,86.8199714 24.5800979,86.0797429 23.5815064,86.1732429 C22.5809745,86.2643143 21.8436128,87.1502571 21.9345702,88.1520429 C22.4769191,94.1168571 24.6681447,98.3702571 28.2715149,100.453243 C29.9109319,101.400871 31.7727702,101.8691 33.8199191,101.8691 C38.7752809,101.8691 44.8150979,99.1248143 51.4026,93.7907 C53.2399404,92.3029571 55.0833447,90.6437571 56.9182596,88.8364143 C59.2348851,91.1180571 61.5568468,93.1488286 63.849217,94.8918143 C63.8475191,94.8981286 63.8448511,94.9042 63.8431532,94.9107571 C63.465983,96.3205429 63.6595404,97.7929857 64.3884128,99.0570571 C65.3603234,100.742486 67.1726809,101.789686 69.1182,101.789686 C70.0719191,101.789686 71.0142383,101.536386 71.8435277,101.056986 C72.2345234,100.830886 72.585983,100.562771 72.8976638,100.2626 C75.4214298,101.290129 77.7887489,101.807171 79.9455319,101.807171 C82.0038383,101.807171 83.8714979,101.337486 85.4995149,100.396414 C91.1068596,97.155 93.1675915,88.8488 91.3023574,77.0078143 C90.9441064,74.7329714 90.4478426,72.3719143 89.8261787,69.9472286 C92.2342468,69.2740286 94.524434,68.5238429 96.6712723,67.6971571 C107.84594,63.3947 114,57.4546571 114,50.9718286 C114,46.8058571 111.416323,42.7788 106.528391,39.3263429 Z M85.3350638,67.3731857 C81.4064298,68.2999286 77.0868,69.0491429 72.4222596,69.5700714 C73.9023191,67.3078571 75.3411447,64.9684143 76.7275787,62.5638857 C78.1666468,60.0682857 79.5166979,57.5525286 80.7745787,55.0375 C82.6068255,59.2433 84.1383064,63.3849857 85.3350638,67.3731857 Z M39.9674298,41.3141286 C41.8780213,38.0005857 43.8385787,34.8915286 45.8229064,31.9896286 C49.4646,31.6962571 53.2071957,31.5435 57,31.5435 C60.7251319,31.5435 64.3995702,31.6906714 67.9762596,31.9731143 C69.9513702,34.8638429 71.9024681,37.9593 73.8045702,41.2577857 C75.6259021,44.4161429 77.3007319,47.5939286 78.815234,50.7535 C77.2391234,54.0811286 75.4881319,57.4274571 73.5765702,60.7427 C71.6800468,64.0317143 69.7342851,67.1189143 67.7649957,70.0026 C64.3314128,70.261 60.7384723,70.4004 56.9997574,70.4004 C53.1960383,70.4004 49.5429447,70.2561429 46.0552723,69.989 C44.0221915,67.0283286 42.0575106,63.9158714 40.1951872,60.6861143 C38.2959957,57.3924857 36.5551915,54.0672857 34.9868426,50.7600571 C36.4955234,47.6119 38.1596809,44.4491714 39.9674298,41.3141286 Z M33.0444766,46.4707143 C31.3007617,42.4222857 29.8367106,38.4355429 28.6821574,34.6025286 C32.5804723,33.6859857 36.7669404,32.9613 41.1464809,32.4486286 C39.6576894,34.7225 38.2108596,37.0745714 36.8166638,39.4924571 C35.4821362,41.8071286 34.2235277,44.1385571 33.0444766,46.4707143 Z M56.9124383,18.0882429 C59.6729362,21.0156429 62.476366,24.3714429 65.2555404,28.1379143 C62.5408851,27.9817571 59.7832979,27.9001571 57,27.9001571 C54.1512128,27.9001571 51.3283787,27.9858857 48.5499319,28.1495714 C51.3358979,24.3775143 54.1458766,21.0173429 56.9124383,18.0882429 Z M80.7559021,46.4627 C79.5695745,44.1179143 78.3017489,41.7711857 76.9553362,39.4361143 C75.5679319,37.0298857 74.1278936,34.6887429 72.6466213,32.4248286 C77.0278596,32.9299714 81.2186936,33.6449429 85.121617,34.5542 C83.9687617,38.3991143 82.5034979,42.3992143 80.7559021,46.4627 Z M91.7212468,18.7429857 C91.3971957,19.3049571 90.7920255,19.6544286 90.1424681,19.6544286 C89.8220553,19.6544286 89.517166,19.5721 89.2360468,19.4096286 C88.815217,19.1662857 88.5142085,18.7735857 88.388566,18.3036571 C88.2626809,17.8334857 88.3274426,17.3429143 88.5704809,16.9215571 C88.8622723,16.4156857 89.3820638,16.0844286 89.9569149,16.0229857 C90.027983,16.0161857 90.0881362,16.0101143 90.1492596,16.0101143 C90.4696723,16.0101143 90.7745617,16.0924429 91.0554383,16.2549143 C91.4760255,16.4982571 91.777034,16.8909571 91.9029191,17.3608857 C92.0288043,17.8308143 91.9642851,18.3216286 91.7212468,18.7429857 Z M83.4530936,4.75781429 C86.2286298,6.36212857 87.373966,9.82357143 87.8251149,12.8920714 C86.8328298,13.3603 85.9841362,14.1216571 85.4199574,15.1001286 C84.6910851,16.3642 84.4972851,17.8368857 84.8746979,19.2466714 C85.2521106,20.6564571 86.1551362,21.8345571 87.417383,22.5643429 C87.5163447,22.6216571 87.6172468,22.6753286 87.7193617,22.7260857 C87.3848809,25.3586571 86.8391362,28.1466571 86.0976511,31.0473429 C81.1034809,29.8762857 75.6656809,29.0131714 69.9741702,28.4900571 C66.5992851,23.6994571 63.0521872,19.3270571 59.446634,15.5125 C69.4141149,5.80258571 78.5202894,1.90618571 83.4530936,4.75781429 Z M22.0970809,17.3608857 C22.222966,16.8909571 22.5237319,16.4982571 22.9448043,16.2549143 C23.2227702,16.0941429 23.5242638,16.0123 23.8412809,16.0108429 C23.8534085,16.0115714 23.8655362,16.0115714 23.8776638,16.0120571 C24.517034,16.0217714 25.1100766,16.3673571 25.4297617,16.9218 C25.6728,17.3431571 25.7373191,17.8339714 25.6116766,18.3039 C25.4857915,18.7738286 25.1850255,19.1665286 24.7639532,19.4098714 C24.4830766,19.5723429 24.1781872,19.6546714 23.8577745,19.6546714 C23.208217,19.6546714 22.6032894,19.3054429 22.2789957,18.7432286 C22.0357149,18.3216286 21.9711957,17.8308143 22.0970809,17.3608857 Z M26.0722851,22.8215286 C26.2459532,22.7440571 26.4171957,22.6600286 26.582617,22.5643429 C27.8451064,21.8345571 28.7481319,20.6564571 29.1255447,19.2466714 C29.5029574,17.8366429 29.3091574,16.3642 28.5802851,15.1001286 C27.9743872,14.0492857 27.0417702,13.2468857 25.9539191,12.7912857 C26.4104043,9.72837143 27.5593787,6.2968 30.3191489,4.70122857 C35.2611702,1.8445 44.3920851,5.76008571 54.3816383,15.5095857 C50.7661404,19.3280286 47.2090979,23.7079571 43.8247532,28.5087571 C38.1315447,29.0411 32.6935021,29.9153857 27.702,31.0964 C26.9605149,28.2136857 26.4125872,25.4414714 26.0722851,22.8215286 Z M11.9814,37.0213857 C12.9846,37.0213857 13.8005489,37.8383571 13.8005489,38.8428143 C13.8005489,39.8472714 12.9846,40.6642429 11.9814,40.6642429 C10.9782,40.6642429 10.1622511,39.8472714 10.1622511,38.8428143 C10.1622511,37.8383571 10.9782,37.0213857 11.9814,37.0213857 Z M3.63829787,50.9718286 C3.63829787,47.7537286 6.07037872,45.0206143 8.53593191,43.0765429 C9.47606809,43.8451857 10.6757362,44.3068571 11.9814,44.3068571 C14.9907574,44.3068571 17.4388468,41.8554571 17.4388468,38.8425714 C17.4388468,38.6055429 17.4221106,38.3724 17.3925191,38.1433857 C19.7726936,37.1632143 22.3752894,36.2814 25.1593149,35.5054714 C26.6306426,40.4155571 28.5892596,45.5583 30.9704043,50.7527714 C28.4985447,56.0876143 26.4695872,61.3731571 24.9543574,66.4143857 C11.5659064,62.6263 3.63829787,56.6765429 3.63829787,50.9718286 Z M28.4740468,67.3285 C29.6715319,63.3633714 31.2022851,59.2340714 33.0287106,55.0428429 C34.2778596,57.5374714 35.6174809,60.0325857 37.0446638,62.5075429 C38.4361915,64.9208143 39.8856894,67.2711857 41.3781191,69.5472429 C36.7147915,69.0190286 32.3971021,68.2627714 28.4740468,67.3285 Z M57,74.0432571 C59.7199915,74.0432571 62.4108766,73.9677286 65.0578596,73.8212857 C62.3531489,77.4901286 59.6249106,80.7689429 56.9354809,83.6436429 C54.1725574,80.6939 51.4329191,77.3910429 48.7815702,73.8130286 C51.480217,73.9653 54.2251915,74.0432571 57,74.0432571 Z M70.0248638,97.9025143 C69.7439872,98.0647429 69.4390979,98.1470714 69.1186851,98.1470714 C68.4688851,98.1470714 67.8639574,97.7978429 67.5399064,97.2358714 C67.2971106,96.8145143 67.2323489,96.3237 67.358234,95.8537714 C67.4045617,95.6808571 67.4749021,95.5183857 67.5661021,95.3697571 C67.5692553,95.3653857 67.5728936,95.3617429 67.5760468,95.3576143 C67.5891447,95.3394 67.599817,95.3202143 67.6121872,95.3015143 C67.7642681,95.0773571 67.9643745,94.8874429 68.2059574,94.7478 C68.4827106,94.5877571 68.7960894,94.503 69.1121362,94.503 C69.7616936,94.503 70.3666213,94.8522286 70.6909149,95.4144429 C71.1922723,96.2841143 70.8934468,97.4002857 70.0248638,97.9025143 Z M87.7089319,77.5761 C89.2995957,87.6748286 87.8314213,94.843 83.6808511,97.2424286 C80.9276298,98.8338714 77.3962979,98.1208429 74.528834,96.9939857 C74.6707277,95.8545 74.457766,94.6618286 73.8414383,93.5932571 C72.8695277,91.9078286 71.0571702,90.8603857 69.1118936,90.8603857 C68.1579319,90.8603857 67.2156128,91.1139286 66.386566,91.5933286 C66.2257532,91.6863429 66.0712468,91.7868857 65.9225617,91.8937429 C63.7868809,90.2612571 61.6218511,88.3633286 59.4585191,86.2334714 C62.9891234,82.4713714 66.4607872,78.1764429 69.7672723,73.4803143 C75.614017,72.9562286 81.1859489,72.0719857 86.305034,70.8567286 C86.8963787,73.1660571 87.3683872,75.4129714 87.7089319,77.5761 Z" id="Shape"></path>
                </g>
            </g>
        </g>
    </g>
</svg>