<?xml version="1.0" encoding="UTF-8"?>
<svg width="115px" height="119px" viewBox="0 0 115 119" version="1.1" xmlns="http://www.w3.org/2000/svg" xmlns:xlink="http://www.w3.org/1999/xlink">
    <!-- Generator: Sketch 46.2 (44496) - http://www.bohemiancoding.com/sketch -->
    <title>Group 7</title>
    <desc>Created with Sketch.</desc>
    <defs></defs>
    <g id="Welcome" stroke="none" stroke-width="1" fill="none" fill-rule="evenodd">
        <g id="Tablet" transform="translate(-39.000000, -2652.000000)">
            <g id="Group-7" transform="translate(41.000000, 2652.000000)">
                <path d="M110.9927,61.3059 C110.9927,91.9549 86.1457,116.8019 55.4957,116.8019 C24.8467,116.8019 -0.0003,91.9549 -0.0003,61.3059 C-0.0003,30.6569 24.8467,5.8099 55.4957,5.8099 C86.1457,5.8099 110.9927,30.6569 110.9927,61.3059 Z" id="Stroke-5" stroke="#0072BB" stroke-width="4"></path>
                <path d="M67.8438,87.5188 C67.8438,87.9748 67.4418,88.3758 66.9868,88.3758 L65.2728,88.3758 C64.8178,88.3758 64.4158,87.9748 64.4158,87.5188 L64.4158,85.8058 C64.4158,85.3498 64.8178,84.9488 65.2728,84.9488 L66.9868,84.9488 C67.4418,84.9488 67.8438,85.3498 67.8438,85.8058 L67.8438,87.5188 Z M67.8438,80.6638 C67.8438,81.1198 67.4418,81.5208 66.9868,81.5208 L65.2728,81.5208 C64.8178,81.5208 64.4158,81.1198 64.4158,80.6638 L64.4158,78.9508 C64.4158,78.4948 64.8178,78.0928 65.2728,78.0928 L66.9868,78.0928 C67.4418,78.0928 67.8438,78.4948 67.8438,78.9508 L67.8438,80.6638 Z M67.8438,73.8078 C67.8438,74.2638 67.4418,74.6648 66.9868,74.6648 L65.2728,74.6648 C64.8178,74.6648 64.4158,74.2638 64.4158,73.8078 L64.4158,72.0948 C64.4158,71.6388 64.8178,71.2378 65.2728,71.2378 L66.9868,71.2378 C67.4418,71.2378 67.8438,71.6388 67.8438,72.0948 L67.8438,73.8078 Z M60.9888,80.6638 C60.9888,81.1198 60.5868,81.5208 60.1318,81.5208 L58.4178,81.5208 C57.9628,81.5208 57.5608,81.1198 57.5608,80.6638 L57.5608,78.9508 C57.5608,78.4948 57.9628,78.0928 58.4178,78.0928 L60.1318,78.0928 C60.5868,78.0928 60.9888,78.4948 60.9888,78.9508 L60.9888,80.6638 Z M60.9888,73.8078 C60.9888,74.2638 60.5868,74.6648 60.1318,74.6648 L58.4178,74.6648 C57.9628,74.6648 57.5608,74.2638 57.5608,73.8078 L57.5608,72.0948 C57.5608,71.6388 57.9628,71.2378 58.4178,71.2378 L60.1318,71.2378 C60.5868,71.2378 60.9888,71.6388 60.9888,72.0948 L60.9888,73.8078 Z M54.1328,80.6638 C54.1328,81.1198 53.7308,81.5208 53.2758,81.5208 L51.5618,81.5208 C51.1068,81.5208 50.7048,81.1198 50.7048,80.6638 L50.7048,78.9508 C50.7048,78.4948 51.1068,78.0928 51.5618,78.0928 L53.2758,78.0928 C53.7308,78.0928 54.1328,78.4948 54.1328,78.9508 L54.1328,80.6638 Z M54.1328,73.8078 C54.1328,74.2638 53.7308,74.6648 53.2758,74.6648 L51.5618,74.6648 C51.1068,74.6648 50.7048,74.2638 50.7048,73.8078 L50.7048,72.0948 C50.7048,71.6388 51.1068,71.2378 51.5618,71.2378 L53.2758,71.2378 C53.7308,71.2378 54.1328,71.6388 54.1328,72.0948 L54.1328,73.8078 Z M60.9888,54.9558 C60.9888,54.4998 60.5868,54.0988 60.1318,54.0988 L58.4178,54.0988 C57.9628,54.0988 57.5608,54.4998 57.5608,54.9558 L57.5608,57.5268 L54.1328,57.5268 L54.1328,54.9558 C54.1328,54.4998 53.7308,54.0988 53.2758,54.0988 L51.5618,54.0988 C51.1068,54.0988 50.7048,54.4998 50.7048,54.9558 L50.7048,63.5248 C50.7048,63.9808 51.1068,64.3818 51.5618,64.3818 L53.2758,64.3818 C53.7308,64.3818 54.1328,63.9808 54.1328,63.5248 L54.1328,60.9548 L57.5608,60.9548 L57.5608,63.5248 C57.5608,63.9808 57.9628,64.3818 58.4178,64.3818 L60.1318,64.3818 C60.5868,64.3818 60.9888,63.9808 60.9888,63.5248 L60.9888,54.9558 Z M47.2778,87.5188 C47.2778,87.9748 46.8758,88.3758 46.4208,88.3758 L44.7068,88.3758 C44.2518,88.3758 43.8498,87.9748 43.8498,87.5188 L43.8498,85.8058 C43.8498,85.3498 44.2518,84.9488 44.7068,84.9488 L46.4208,84.9488 C46.8758,84.9488 47.2778,85.3498 47.2778,85.8058 L47.2778,87.5188 Z M47.2778,80.6638 C47.2778,81.1198 46.8758,81.5208 46.4208,81.5208 L44.7068,81.5208 C44.2518,81.5208 43.8498,81.1198 43.8498,80.6638 L43.8498,78.9508 C43.8498,78.4948 44.2518,78.0928 44.7068,78.0928 L46.4208,78.0928 C46.8758,78.0928 47.2778,78.4948 47.2778,78.9508 L47.2778,80.6638 Z M47.2778,73.8078 C47.2778,74.2638 46.8758,74.6648 46.4208,74.6648 L44.7068,74.6648 C44.2518,74.6648 43.8498,74.2638 43.8498,73.8078 L43.8498,72.0948 C43.8498,71.6388 44.2518,71.2378 44.7068,71.2378 L46.4208,71.2378 C46.8758,71.2378 47.2778,71.6388 47.2778,72.0948 L47.2778,73.8078 Z M71.2718,95.2318 L71.2718,64.3818 L64.4158,64.3818 L64.4158,65.2398 C64.4158,66.6588 63.2648,67.8098 61.8448,67.8098 L49.8478,67.8098 C48.4288,67.8098 47.2778,66.6588 47.2778,65.2398 L47.2778,64.3818 L40.4218,64.3818 L40.4218,95.2318 L50.7048,95.2318 L50.7048,89.2338 C50.7048,88.7778 51.1068,88.3758 51.5618,88.3758 L60.1318,88.3758 C60.5868,88.3758 60.9888,88.7778 60.9888,89.2338 L60.9888,95.2318 L71.2718,95.2318 Z M74.6988,96.9458 C74.6988,97.8828 73.9228,98.6598 72.9858,98.6598 L38.7078,98.6598 C37.7708,98.6598 36.9938,97.8828 36.9938,96.9458 L36.9938,62.6678 C36.9938,61.7308 37.7708,60.9548 38.7078,60.9548 L47.2778,60.9548 L47.2778,53.2418 C47.2778,51.8228 48.4288,50.6708 49.8478,50.6708 L61.8448,50.6708 C63.2648,50.6708 64.4158,51.8228 64.4158,53.2418 L64.4158,60.9548 L72.9858,60.9548 C73.9228,60.9548 74.6988,61.7308 74.6988,62.6678 L74.6988,96.9458 Z" id="Fill-7" fill="#0087C7"></path>
                <path d="M49.4019,22.2112 C49.3539,22.7102 48.9139,23.0732 48.4159,23.0252 C47.9179,22.9802 47.5529,22.5362 47.5999,22.0392 C47.6469,21.5432 48.0889,21.1762 48.5859,21.2232 C49.0839,21.2722 49.4499,21.7132 49.4019,22.2112 M77.5909,27.7432 C90.7159,29.6822 97.7399,19.7822 99.5409,16.7902 C99.6179,16.6642 99.6099,16.5052 99.5229,16.3852 C99.4369,16.2672 99.2859,16.2112 99.1429,16.2452 C97.3259,16.6692 95.2179,16.2172 95.2179,16.2172 C100.5449,12.1282 101.2889,4.3002 101.3499,0.9122 C101.3549,0.5922 101.1909,0.2942 100.9169,0.1282 C100.6449,-0.0358 100.3039,-0.0418 100.0239,0.1102 C95.3289,2.6832 84.8749,5.1502 71.5299,10.5022 C65.0139,13.1152 62.2089,17.4682 61.0359,21.1922 C59.2119,21.4402 57.3739,21.3782 55.9049,20.5172 C54.8629,19.9062 53.7519,18.9892 52.4069,18.7282 C48.1489,17.9022 45.0749,19.6772 41.7999,24.2242 C41.6559,24.4272 41.6219,24.6922 41.7149,24.9242 C41.8069,25.1572 42.0109,25.3262 42.2569,25.3742 C52.6309,27.4052 53.6499,32.4082 57.1219,35.2002 C68.7579,44.5492 86.6349,43.7452 97.9289,37.9982 C98.2159,37.8522 98.3729,37.5352 98.3109,37.2162 C98.2519,36.8992 97.9879,36.6612 97.6679,36.6312 C90.0679,35.9232 83.0299,34.2162 77.5909,27.7432" id="Fill-9" fill="#0072BA"></path>
            </g>
        </g>
    </g>
</svg>