<?xml version="1.0" encoding="UTF-8"?>
<svg width="61px" height="38px" viewBox="0 0 61 38" version="1.1" xmlns="http://www.w3.org/2000/svg" xmlns:xlink="http://www.w3.org/1999/xlink">
    <!-- Generator: Sketch 46.2 (44496) - http://www.bohemiancoding.com/sketch -->
    <title>Group 18</title>
    <desc>Created with Sketch.</desc>
    <defs></defs>
    <g id="Welcome" stroke="none" stroke-width="1" fill="none" fill-rule="evenodd">
        <g id="Hover-&amp;-Focus-Effect" transform="translate(-582.000000, -698.000000)">
            <g id="Group-18" transform="translate(583.000000, 699.000000)">
                <g id="Page-1-Copy-4" stroke="#FFFFFF" stroke-linecap="round" stroke-linejoin="round">
                    <path d="M6.0039022,30.0519715 L0.164036023,30.0519715 L0.164036023,8.87260254 C0.164036023,6.60792262 1.98224687,4.76957051 4.22211463,4.76957051 L40.5531897,4.76957051 C42.0117617,4.76957051 43.3820646,5.32794384 44.2467074,6.28145836 L56.634889,19.9392102 C56.6401392,19.9441867 56.6453894,19.9494951 56.6453894,19.9494951 C57.6714759,21.0134899 58.3851753,22.3409122 58.3851753,23.8259264 L58.3851753,27.6814561 C58.3851753,28.9879767 56.2024035,30.0519715 54.9052753,30.0519715 L47.1743517,30.0519715" id="Stroke-1" stroke-width="2"></path>
                    <polyline id="Stroke-3" stroke-width="2" points="16.3342996 30.0519715 22.2263397 30.0519715 36.8438887 30.0519715"></polyline>
                    <path d="M16.3347918,30.0503458 C16.3347918,32.934777 14.0220775,35.2734422 11.1685923,35.2734422 C8.31576337,35.2734422 6.00272091,32.934777 6.00272091,30.0503458 C6.00272091,27.1655828 8.31576337,24.8269176 11.1685923,24.8269176 C14.0220775,24.8269176 16.3347918,27.1655828 16.3347918,30.0503458 Z" id="Stroke-5" stroke-width="2"></path>
                    <path d="M11.1685267,32.1129098 C10.0436707,32.1129098 9.12849476,31.187596 9.12849476,30.0502794 C9.12849476,28.9126311 10.0436707,27.9869855 11.1685267,27.9869855 C12.2940389,27.9869855 13.2092149,28.9126311 13.2092149,30.0502794 C13.2092149,31.187596 12.2940389,32.1129098 11.1685267,32.1129098 Z" id="Stroke-7"></path>
                    <path d="M47.1768456,30.0503458 C47.1768456,32.934777 44.8641312,35.2734422 42.0109742,35.2734422 C39.1578171,35.2734422 36.8447746,32.934777 36.8447746,30.0503458 C36.8447746,27.1655828 39.1578171,24.8269176 42.0109742,24.8269176 C44.8641312,24.8269176 47.1768456,27.1655828 47.1768456,30.0503458 Z" id="Stroke-9" stroke-width="2"></path>
                    <path d="M42.0109085,32.1129098 C40.8853963,32.1129098 39.9702203,31.187596 39.9702203,30.0502794 C39.9702203,28.9126311 40.8853963,27.9869855 42.0109085,27.9869855 C43.1360926,27.9869855 44.0515967,28.9126311 44.0515967,30.0502794 C44.0515967,31.187596 43.1360926,32.1129098 42.0109085,32.1129098 Z" id="Stroke-11"></path>
                    <path d="M31.1388889,30.0500472 L31.1388889,4.76963687" id="Stroke-13"></path>
                    <path d="M31.5699278,17.0742857 L53.203685,17.0742857" id="Stroke-15"></path>
                    <path d="M46.7682927,16.56 L44.2341651,13.7196219" id="Stroke-17"></path>
                    <path d="M45.7957395,12.2734914 L42.3470126,15.1144604" id="Stroke-19"></path>
                    <path d="M39.8796296,17.2576717 L39.8796296,24.0468166" id="Stroke-21"></path>
                    <path d="M31.6585366,4.29778984 C31.6585366,1.94677764 33.5441724,0.0402536896 35.8699456,0.0402536896 C38.1957188,0.0402536896 40.0808355,1.94677764 40.0808355,4.29778984" id="Stroke-23"></path>
                    <polyline id="Stroke-25" points="46.9148604 9.22288808 35.1811375 9.22288808 31.1388889 9.22288808"></polyline>
                    <path d="M57.3492345,20.9142857 L53.3056925,20.9142857" id="Stroke-27" stroke-width="2"></path>
                </g>
                <path d="M22.3793103,14.2613904 C22.3793103,13.763984 21.9754482,13.3604278 21.4776646,13.3604278 L17.5705329,13.3604278 L17.5705329,9.45625668 C17.5705329,8.95885027 17.1666707,8.55529412 16.6688871,8.55529412 L14.8655956,8.55529412 C14.367812,8.55529412 13.9639498,8.95885027 13.9639498,9.45625668 L13.9639498,13.3604278 L10.0568182,13.3604278 C9.55903458,13.3604278 9.15517241,13.763984 9.15517241,14.2613904 L9.15517241,16.0633155 C9.15517241,16.5607219 9.55903458,16.9642781 10.0568182,16.9642781 L13.9639498,16.9642781 L13.9639498,20.8684492 C13.9639498,21.3658556 14.367812,21.7694118 14.8655956,21.7694118 L16.6688871,21.7694118 C17.1666707,21.7694118 17.5705329,21.3658556 17.5705329,20.8684492 L17.5705329,16.9642781 L21.4776646,16.9642781 C21.9754482,16.9642781 22.3793103,16.5607219 22.3793103,16.0633155 L22.3793103,14.2613904 Z" id="fa-plus" fill="#FFFFFF"></path>
            </g>
        </g>
    </g>
</svg>