<?xml version="1.0" encoding="UTF-8"?>
<svg width="15px" height="26px" viewBox="0 0 15 26" version="1.1" xmlns="http://www.w3.org/2000/svg" xmlns:xlink="http://www.w3.org/1999/xlink">
    <!-- Generator: Sketch 46.2 (44496) - http://www.bohemiancoding.com/sketch -->
    <title>fa-caret-down copy 10</title>
    <desc>Created with Sketch.</desc>
    <defs></defs>
    <g id="Welcome" stroke="none" stroke-width="1" fill="none" fill-rule="evenodd">
        <g id="SuperMenu" transform="translate(-177.000000, -108.000000)" fill="#0072BB">
            <g id="Group-7" transform="translate(-24.000000, 89.000000)">
                <g id="Group-2">
                    <path d="M220.928571,26.1517857 C220.928571,26.5822194 220.7713,26.9547045 220.456752,27.2692522 L209.331752,38.3942522 C209.017205,38.7087999 208.644719,38.8660714 208.214286,38.8660714 C207.783852,38.8660714 207.411367,38.7087999 207.096819,38.3942522 L195.971819,27.2692522 C195.657271,26.9547045 195.5,26.5822194 195.5,26.1517857 C195.5,25.721352 195.657271,25.3488669 195.971819,25.0343192 C196.286367,24.7197715 196.658852,24.5625 197.089286,24.5625 L219.339286,24.5625 C219.769719,24.5625 220.142205,24.7197715 220.456752,25.0343192 C220.7713,25.3488669 220.928571,25.721352 220.928571,26.1517857 Z" id="fa-caret-down-copy-10" transform="translate(208.214286, 31.714286) scale(1, -1) rotate(-90.000000) translate(-208.214286, -31.714286) "></path>
                </g>
            </g>
        </g>
    </g>
</svg>