<?xml version="1.0" encoding="UTF-8"?>
<svg width="18px" height="18px" viewBox="0 0 18 18" version="1.1" xmlns="http://www.w3.org/2000/svg" xmlns:xlink="http://www.w3.org/1999/xlink">
    <!-- Generator: Sketch 46.2 (44496) - http://www.bohemiancoding.com/sketch -->
    <title>fa-arrow-circle-right copy 6</title>
    <desc>Created with Sketch.</desc>
    <defs></defs>
    <g id="Welcome" stroke="none" stroke-width="1" fill="none" fill-rule="evenodd">
        <g id="Mobile-Portrait-Copy" transform="translate(-287.000000, -2958.000000)" fill="#0072BB">
            <path d="M301.341518,2966.85714 C301.341518,2966.65625 301.274554,2966.48884 301.140625,2966.35491 L296.084821,2961.29911 C295.950892,2961.16518 295.783483,2961.09821 295.582589,2961.09821 C295.381695,2961.09821 295.214286,2961.16518 295.080357,2961.29911 L294.064732,2962.31473 C293.930803,2962.44866 293.863839,2962.61607 293.863839,2962.81696 C293.863839,2963.01786 293.930803,2963.18527 294.064732,2963.3192 L296.174107,2965.42857 L290.571429,2965.42857 C290.377975,2965.42857 290.210566,2965.49926 290.069196,2965.64062 C289.927827,2965.78199 289.857143,2965.9494 289.857143,2966.14286 L289.857143,2967.57143 C289.857143,2967.76488 289.927827,2967.93229 290.069196,2968.07366 C290.210566,2968.21503 290.377975,2968.28571 290.571429,2968.28571 L296.174107,2968.28571 L294.064732,2970.39509 C293.923362,2970.53646 293.852679,2970.70387 293.852679,2970.89732 C293.852679,2971.09077 293.923362,2971.25818 294.064732,2971.39955 L295.080357,2972.41518 C295.214286,2972.54911 295.381695,2972.61607 295.582589,2972.61607 C295.783483,2972.61607 295.950892,2972.54911 296.084821,2972.41518 L301.140625,2967.35938 C301.274554,2967.22545 301.341518,2967.05804 301.341518,2966.85714 Z M304.142857,2966.85714 C304.142857,2968.41221 303.759676,2969.84635 302.993304,2971.1596 C302.226931,2972.47285 301.187135,2973.51264 299.873884,2974.27902 C298.560633,2975.04539 297.126496,2975.42857 295.571429,2975.42857 C294.016361,2975.42857 292.582224,2975.04539 291.268973,2974.27902 C289.955723,2973.51264 288.915926,2972.47285 288.149554,2971.1596 C287.383181,2969.84635 287,2968.41221 287,2966.85714 C287,2965.30208 287.383181,2963.86794 288.149554,2962.55469 C288.915926,2961.24144 289.955723,2960.20164 291.268973,2959.43527 C292.582224,2958.66889 294.016361,2958.28571 295.571429,2958.28571 C297.126496,2958.28571 298.560633,2958.66889 299.873884,2959.43527 C301.187135,2960.20164 302.226931,2961.24144 302.993304,2962.55469 C303.759676,2963.86794 304.142857,2965.30208 304.142857,2966.85714 Z" id="fa-arrow-circle-right-copy-6"></path>
        </g>
    </g>
</svg>