<?xml version="1.0" encoding="UTF-8"?>
<svg width="47px" height="63px" viewBox="0 0 47 63" version="1.1" xmlns="http://www.w3.org/2000/svg" xmlns:xlink="http://www.w3.org/1999/xlink">
    <!-- Generator: Sketch 46.2 (44496) - http://www.bohemiancoding.com/sketch -->
    <title>Page 1 Copy 3</title>
    <desc>Created with Sketch.</desc>
    <defs></defs>
    <g id="Symbols" stroke="none" stroke-width="1" fill="none" fill-rule="evenodd">
        <g id="CenterIcon" transform="translate(-202.000000, -75.000000)">
            <g id="Group-16">
                <g id="Page-1-Copy-3" transform="translate(203.952169, 76.888743)">
                    <path d="M12.3767719,9.32440089 L12.3767719,5.8058201 L12.3767719,2.71077968 C12.3767719,1.32567729 11.2330519,0.202304237 9.82194215,0.202304237 L6.79124912,0.202304237 C5.38055133,0.202304237 4.2364194,1.32567729 4.2364194,2.71077968 L4.2364194,16.7523361 C2.99876281,18.7778056 -1.21767445,26.2397211 0.697314839,35.6478188 C3.4445499,49.1473082 17.2726019,57.654523 30.4435092,59.166647 C38.7795631,60.1237592 43.088701,54.2419284 43.3021185,46.5999981 C43.4327234,41.9078829 42.65651,37.015931 41.3104966,32.5204161 C40.0987962,28.4739269 38.4182366,24.5653815 36.3067219,20.8922712 C34.6739546,18.0528922 32.3889867,13.662959 28.6574768,13.2770397" id="Stroke-1" stroke="#FFFFFF" stroke-width="3" stroke-linecap="round" stroke-linejoin="round"></path>
                    <path d="M4.2365018,16.7522552 C4.2365018,16.7522552 6.53712576,14.4068043 9.05858326,12.5819805" id="Stroke-3" stroke="#FFFFFF" stroke-width="3" stroke-linecap="round" stroke-linejoin="round"></path>
                    <path d="M25.1180839,18.9676909 L25.1180839,14.0158689 C25.3529255,11.0959889 28.1714371,10.1696208 30.4452809,9.90101448 C32.1023564,9.70522314 33.347017,8.32537961 33.347017,6.68704296 L33.347017,4.53252913 C33.347017,2.77000252 31.913247,1.31491686 30.1177386,1.2934769 C27.9679077,1.26758713 25.1176719,1.63044836 22.2645521,3.1996108 C11.6373503,9.04462962 12.8189745,23.7811644 18.071187,32.7839254 C18.6195628,33.7240475 19.1016061,34.4295435 19.4056643,34.8567247 C24.1585292,41.5294069 30.7835352,44.6026028 35.072485,46.0730605" id="Stroke-5" stroke="#FFFFFF" stroke-width="3" stroke-linecap="round" stroke-linejoin="round"></path>
                    <path d="M18.071187,32.7840468 C18.071187,32.7840468 16.4215275,37.4288323 18.071187,41.0776709" id="Stroke-7" stroke="#FFFFFF" stroke-width="3" stroke-linecap="round" stroke-linejoin="round"></path>
                    <path d="M23.7529124,39.6442275 C23.7529124,39.6442275 27.7724123,41.2514155 32.1524147,38.3845287" id="Stroke-9" stroke="#FFFFFF" stroke-width="3" stroke-linecap="round" stroke-linejoin="round"></path>
                    <path d="M14.704176,23.7841174 C14.704176,23.7841174 15.6505466,26.3957474 19.1900632,26.9167789" id="Stroke-11" stroke="#FFFFFF" stroke-width="3" stroke-linecap="round" stroke-linejoin="round"></path>
                    <path d="M12.3767719,4.502675 C12.9869481,4.15518582 14.412066,3.45171238 16.3583675,3.46020746 C18.2642927,3.46870253 19.6589224,4.15518582 20.2695106,4.502675" id="Stroke-13" stroke="#FFFFFF" stroke-width="3" stroke-linecap="round" stroke-linejoin="round"></path>
                    <path d="M2.68947226,35.2773929 C4.76514266,40.2174835 13.309258,56.8718835 33.9963335,56.3605606 C35.0123325,56.3354799 35.8173861,55.5053894 35.8173861,54.5074199 C35.8173861,53.5264405 35.0415847,52.7185989 34.0445378,52.6575153 C28.732997,52.3330842 12.9112632,49.9916786 6.31056539,33.7972265 C5.84994619,32.6661674 4.42853633,32.2636625 3.43272542,32.9897895 L3.30830056,33.0799991 C2.61283973,33.5872767 2.35904597,34.4909913 2.68947226,35.2773929" id="Fill-15" fill-opacity="0.427083333" fill="#82B7FF"></path>
                </g>
            </g>
        </g>
    </g>
</svg>