<?xml version="1.0" encoding="UTF-8"?>
<svg width="55px" height="81px" viewBox="0 0 55 81" version="1.1" xmlns="http://www.w3.org/2000/svg" xmlns:xlink="http://www.w3.org/1999/xlink">
    <!-- Generator: Sketch 46.2 (44496) - http://www.bohemiancoding.com/sketch -->
    <title>Page 1</title>
    <desc>Created with Sketch.</desc>
    <defs>
        <polygon id="path-1" points="0 80.4646636 0 0.00036556176 54.84875 0.00036556176 54.84875 80.4646636 1.57214962e-15 80.4646636"></polygon>
    </defs>
    <g id="Symbols" stroke="none" stroke-width="1" fill="none" fill-rule="evenodd">
        <g id="CenterIcon" transform="translate(-61.000000, -208.000000)">
            <g id="Group-16">
                <g id="boneCenterIcon" transform="translate(0.000000, 184.000000)">
                    <g id="Page-1" transform="translate(61.000000, 24.000000)">
                        <mask id="mask-2" fill="white">
                            <use xlink:href="#path-1"></use>
                        </mask>
                        <g id="Clip-2"></g>
                        <path d="M26.0363583,52.6006636 C24.480775,52.4543114 22.718025,52.2886295 21.156025,51.1132091 C18.914775,49.4269364 18.8231083,47.8492773 18.8231083,42.0881523 C18.8231083,39.724425 17.641525,37.7776636 15.4956083,36.6050045 C13.6274417,35.5842205 11.1698583,35.2270841 8.95060833,35.3623909 C10.466775,32.8246977 10.860025,30.1158 10.871025,28.0733114 C11.0048583,28.1230159 11.1341083,28.1846864 11.2716083,28.222425 C14.6651083,29.1704932 18.9551083,29.8507091 19.5564417,29.9445955 C20.078025,30.0799023 25.096775,31.4992432 24.802525,35.4903341 C24.7191083,36.6316977 24.6228583,37.5383455 24.544025,38.2894364 C24.2983583,40.6209477 24.1746083,41.7917659 25.083025,43.7928341 C25.965775,45.7423568 28.3756917,47.4175841 31.1183583,48.0223227 C29.8249417,49.2861068 28.9999417,50.6907205 28.677275,52.2278795 C28.6186083,52.5030955 28.578275,52.7718682 28.5461917,53.0351182 C27.783525,52.7727886 26.9346917,52.6853455 26.0363583,52.6006636 M54.3026917,9.67250455 C53.6976917,9.21411818 52.8341917,9.33285682 52.3758583,9.94127727 C52.3364417,9.99558409 48.323275,15.3305386 45.1323583,19.7689705 C42.0441083,24.0619705 40.7433583,27.6664705 41.038525,31.1117318 C41.068775,31.4688682 41.1136917,31.8536182 41.1613583,32.2623 C41.522525,35.3715955 42.017525,39.6268568 37.5533583,43.8443795 C35.5366917,45.7506409 33.1276917,45.6190159 31.8709417,45.3695727 C29.6929417,44.9378795 28.0383583,43.6464818 27.585525,42.6477886 C26.9878583,41.3324591 27.049275,40.7498114 27.2784417,38.5793795 C27.360025,37.8061977 27.459025,36.8710159 27.5451917,35.6937545 C27.9283583,30.4821409 22.8701917,27.8873795 20.141275,27.2458227 C20.105525,27.2366182 20.069775,27.2310955 20.0331083,27.2246523 C19.987275,27.2172886 15.4296083,26.5177432 12.0086083,25.5623114 C10.865525,25.2429136 9.85444167,23.9321864 9.490525,22.3020614 C9.03585833,20.2632545 9.66835833,18.2631068 11.1799417,16.9533 C13.981275,14.5288227 17.2996083,15.1142318 20.5088583,15.6830727 C21.483275,15.8533568 22.4036083,16.0162773 23.276275,16.0816295 C30.9176083,16.6477091 34.0846917,13.7731295 36.4001917,11.6744932 L36.5266917,11.5603568 C40.417025,8.03869773 45.0819417,2.504925 45.2781083,2.27112955 C45.768525,1.68848182 45.6951917,0.818652273 45.1149417,0.326209091 C44.5356083,-0.166234091 43.6656917,-0.0916772727 43.178025,0.49005 C43.1303583,0.545277273 38.437025,6.11126591 34.6851083,9.50958409 L34.556775,9.62648182 C32.395275,11.5852091 29.9459417,13.8062659 23.479775,13.3276295 C22.7446083,13.2733227 21.890275,13.1223682 20.985525,12.9631295 C17.6873583,12.3804818 13.1746083,11.5824477 9.38419167,14.8629477 C7.09069167,16.8483682 6.127275,19.8554932 6.806525,22.9058795 C7.02744167,23.8916864 7.40969167,24.7992545 7.91294167,25.5816409 C8.123775,26.6613341 9.080775,32.8633568 4.18119167,36.6611523 C4.059275,36.7559591 3.96394167,36.869175 3.883275,36.9915955 C1.710775,38.570175 0.427441667,40.5316636 0.0864416667,42.8401636 C-0.382891667,46.0304591 1.05994167,49.8080045 4.150025,53.4714136 C7.56919167,57.5306182 7.33544167,60.5276182 6.946775,65.4934705 L6.889025,66.22155 C6.531525,70.9241523 5.989775,77.794425 5.989775,77.7953455 L8.73060833,78.0125727 C8.73060833,78.0125727 9.27235833,71.1386182 9.63169167,66.4332545 L9.68760833,65.7106977 C10.0863583,60.6288682 10.3998583,56.6138455 6.248275,51.6884932 C3.67610833,48.6381068 2.45419167,45.6401864 2.80710833,43.2433227 C3.05644167,41.55705 4.11244167,40.0981295 5.94669167,38.9061409 C7.22910833,38.0712886 11.4916083,37.5622773 14.1811083,39.0313227 C15.4543583,39.7281068 16.0731083,40.7277205 16.0731083,42.0899932 C16.0731083,47.8483568 16.0731083,50.740425 19.506025,53.3259818 C21.689525,54.9689932 24.054525,55.1945045 25.781525,55.3565045 C26.5616083,55.4292205 27.299525,55.5056182 27.7459417,55.6851068 C28.2033583,55.8682773 28.8963583,56.7638795 28.9871083,57.7819023 C29.0558583,58.5596864 28.7561083,59.1754705 28.069525,59.6062432 C24.9776083,61.5474818 23.9151917,62.9751068 22.3073583,65.0507318 C19.566525,68.5898795 19.657275,77.8514932 19.676525,78.8824023 C19.690275,79.6353341 20.3026083,80.4646636 21.0506083,80.4646636 L21.0771917,80.4646636 C21.8361917,79.5442091 22.440275,79.5920727 22.426525,78.8299364 C22.3596083,75.3119591 22.8591917,68.7242659 24.4789417,66.6329932 C26.007025,64.6586182 26.848525,63.5724818 29.527025,61.8908114 C31.0844417,60.9123682 31.886525,59.3153795 31.7261083,57.5094477 C31.6573583,56.7335045 31.4098583,55.9759705 31.045025,55.3012773 C31.072525,54.6808909 31.152275,53.7788455 31.3759417,52.7617432 C31.7169417,51.2034136 33.0241083,49.3413341 35.835525,47.9293568 C37.166525,47.5455273 38.387525,46.8496636 39.4389417,45.8564932 C44.9086917,40.6863 44.2734417,35.2132773 43.8921083,31.9438227 C43.849025,31.5627545 43.8068583,31.2046977 43.777525,30.875175 C43.5428583,28.1266977 44.6813583,25.1122091 47.3616917,21.3852886 C50.5361083,16.9717091 54.5309417,11.6597659 54.571275,11.6063795 C55.0286917,10.9979591 54.9086083,10.1327318 54.3026917,9.67250455" id="Fill-1" fill="#FFFFFF" mask="url(#mask-2)"></path>
                    </g>
                </g>
            </g>
        </g>
    </g>
</svg>