<?xml version="1.0" encoding="UTF-8"?>
<svg width="35px" height="56px" viewBox="0 0 35 56" version="1.1" xmlns="http://www.w3.org/2000/svg" xmlns:xlink="http://www.w3.org/1999/xlink">
    <!-- Generator: Sketch 46.2 (44496) - http://www.bohemiancoding.com/sketch -->
    <title>Page 1 Copy 2</title>
    <desc>Created with Sketch.</desc>
    <defs></defs>
    <g id="Symbols" stroke="none" stroke-width="1" fill="none" fill-rule="evenodd">
        <g id="CenterIcon" transform="translate(-346.000000, -116.000000)">
            <g id="Group-16">
                <g id="Page-1-Copy-2" transform="translate(347.799213, 117.794960)">
                    <path d="M17.1350611,0.196134984 L25.3293435,0.196134984 C25.7589589,0.196134984 26.1668566,0.335254438 26.4965707,0.583402904" id="Stroke-1" stroke="#FFFFFF" stroke-width="3" stroke-linecap="round" stroke-linejoin="round"></path>
                    <path d="M14.8784745,16.3698267 L4.83384477,0.524667921" id="Stroke-3" stroke="#FFFFFF" stroke-width="3" stroke-linecap="round" stroke-linejoin="round"></path>
                    <path d="M16.5192658,39.6852313 L24.158365,51.8448968 C24.5338837,52.4427979 25.4191757,52.4240402 25.7682383,51.8105078 L30.7798917,43.0022142 C30.9473154,42.7083439 30.9402077,42.3476494 30.7605432,42.061204 L23.0566858,29.7202141" id="Stroke-5" stroke="#FFFFFF" stroke-width="3" stroke-linecap="round" stroke-linejoin="round"></path>
                    <path d="M17.1347057,0.195353414 L5.91929499,0.195353414 C5.13548376,0.195353414 4.42906649,0.662341471 4.12857262,1.37825956 L0.654531732,9.66211967 C-0.0972952574,11.4538688 0.0867128187,13.4961112 1.14614129,15.1280293 L8.29442069,26.138787" id="Stroke-7" stroke="#FFFFFF" stroke-width="3" stroke-linecap="round" stroke-linejoin="round"></path>
                    <path d="M30.1710856,15.1047385 L7.08912831,51.8443888 C6.71439941,52.4418991 5.82910734,52.4227506 5.48083454,51.8111721 L0.469181107,43.0024878 C0.300177982,42.7097898 0.309654792,42.3483137 0.488529596,42.0603052 L26.4964522,0.583559218 C26.7661464,0.784031915 26.9833233,1.05601826 27.1191576,1.37958823 L30.6149162,9.71346882 C31.3548972,11.477863 31.1902376,13.4845439 30.1710856,15.1047385 Z" id="Stroke-9" stroke="#FFFFFF" stroke-width="3" stroke-linecap="round" stroke-linejoin="round"></path>
                    <path d="M1.86057436,42.5596502 L26.4161757,3.39908688 L29.2931775,10.2565818 C29.8542837,11.5954111 29.7283211,13.1284606 28.9555661,14.3559163 L6.31586003,50.3913721 L1.86057436,42.5596502 Z" id="Fill-11" fill-opacity="0.18823596" fill="#72AEFF"></path>
                    <path d="M5.08470385,3.39873517 L13.8969533,17.4501909 L9.11748171,24.8203957 L2.54294423,14.3563461 C1.77216362,13.1281089 1.64580614,11.595841 2.20651744,10.2566209 L5.08470385,3.39873517 Z" id="Fill-13" fill-opacity="0.18823596" fill="#72AEFF"></path>
                    <polygon id="Fill-15" fill-opacity="0.18823596" fill="#72AEFF" points="29.6389232 42.5585169 25.1840324 50.391802 17.70288 38.4845835 22.4732696 31.1284469"></polygon>
                    <path d="M10.0386672,6 L21.4088658,6" id="Stroke-17" stroke="#FFFFFF" stroke-width="3" stroke-linecap="round" stroke-linejoin="round"></path>
                </g>
            </g>
        </g>
    </g>
</svg>