<?xml version="1.0" encoding="UTF-8"?>
<svg width="64px" height="68px" viewBox="0 0 64 68" version="1.1" xmlns="http://www.w3.org/2000/svg" xmlns:xlink="http://www.w3.org/1999/xlink">
    <!-- Generator: Sketch 46.2 (44496) - http://www.bohemiancoding.com/sketch -->
    <title>brain_icon</title>
    <desc>Created with Sketch.</desc>
    <defs></defs>
    <g id="Symbols" stroke="none" stroke-width="1" fill="none" fill-rule="evenodd" stroke-linecap="round" stroke-linejoin="round">
        <g id="CenterIcon" transform="translate(-189.000000, -250.000000)" stroke="#FFFFFF">
            <g id="brain_icon" transform="translate(191.000000, 252.000000)">
                <g id="Page-1">
                    <path d="M30.9079535,47.2913496 C29.5986512,55.6721266 21.8865581,61.8764432 13.0730698,61.0628604 C11.1530698,60.8855942 9.47539535,60.5632921 8.29306977,60.2386878 C6.96190698,59.873105 6.21911628,58.3739396 6.87493023,57.1699108 C6.95027907,57.0313209 7.04051163,56.9102273 7.14748837,56.8153784 C8.40423256,55.7025151 8.74748837,54.1646734 8.19353488,53.210659 C7.91632558,52.7345727 7.44934884,52.4619971 7.04051163,52.3063712 C6.26144186,52.0098532 5.77213953,51.1884432 5.98376744,50.3891338 C5.98609302,50.3799252 5.9884186,50.3707165 5.9912093,50.3624288 C6.21353488,49.5672633 6.92190698,48.9636374 7.79818605,48.8190619 L6.86237209,48.5593784 C6.18190698,48.370141 5.66237209,47.7844719 5.62702326,47.0859971 C5.60004651,46.5472921 5.74981395,46.1872345 5.92330233,45.9533353 C6.26237209,45.4975079 6.40562791,44.927954 6.42330233,44.3625439 L6.52190698,41.239436 L0.232604651,41.239436 C1.48376744,38.6568748 3.10655814,36.0075511 4.54702326,33.3913784 C5.55632558,31.5579396 6.154,29.5329612 6.30562791,27.4504288 L6.30934884,27.4034647 C6.35493023,26.7758964 6.32237209,26.2081842 6.25586047,25.7187453 C3.31074419,4.06142158 32.7135349,-6.03124029 48.6507442,4.31511942 C56.4079535,9.35178129 61.214,18.6663137 59.6684186,27.8786302 C58.6758605,33.7928748 55.378186,38.9400403 53.1572558,44.4293065 C51.769814,47.8586014 51.2544651,58.1879252 51.4633023,63.5758964" id="Stroke-1" stroke-width="3"></path>
                    <path d="M23.8953488,58.4235281 C23.8953488,58.4235281 25.42,59.7104345 25.1162791,63.5762187" id="Stroke-3" stroke-width="3"></path>
                    <path d="M7.7984186,48.8192 L11.079814,48.8192" id="Stroke-5" stroke-width="3"></path>
                    <path d="M16.2368372,22.4104978 C16.2368372,22.4104978 19.0284651,20.7699799 17.9684651,17.2822101" id="Stroke-7" stroke-width="3"></path>
                    <path d="M39.5685116,23.7095137 C37.4466512,25.1267223 36.4843256,27.5647079 37.1243256,29.6182331 C37.7773488,31.7136576 39.8429302,32.5857151 39.9415349,32.6257727 C40.3782791,32.8025784 41.7033953,33.3380604 42.9587442,32.8297439 C43.802,32.4881036 43.9629302,31.9392691 44.602,31.9816288 C45.2638605,32.0258302 45.3880465,32.7054273 46.4382791,33.1543482 C46.9266512,33.3629237 47.4522326,33.5176288 48.009907,33.6069525 C51.0754884,34.0986935 54.1703721,32.3499741 55.286186,29.4810245 C56.469907,26.4389525 55.246186,23.1694273 52.669907,21.5344345 C53.4466512,20.5265496 53.9596744,19.2787799 54.0308372,17.8367079 C54.1592093,15.2348086 52.6689767,12.7447942 50.3010698,11.6079885 C48.9201395,10.9449669 47.4759535,10.8049957 46.134093,11.0568518 C46.0475814,9.18611799 44.7754884,7.49587338 42.8559535,6.95532662 C40.8052558,6.37748489 38.6866512,7.30111079 37.6833953,9.06180144 C36.914093,7.36557122 35.4238605,6.00407482 33.4759535,5.45524029 C29.9754884,4.46945612 26.329907,6.47924029 25.334093,9.94444892 C25.2624651,10.1935424 25.2113023,10.442636 25.1703721,10.6917295 C24.3392093,10.1999885 23.334093,9.92833381 22.122,10.1359885 C21.3843256,10.2616863 20.6880465,10.5609669 20.1001395,10.9979165" id="Stroke-9" stroke-width="3"></path>
                    <path d="M41.002,26.6060892 C41.002,26.6060892 41.1410698,22.3420317 36.8568837,21.4939165" id="Stroke-11" stroke-width="3"></path>
                    <path d="M52.2919535,21.4347511 C49.8952093,21.7552115 47.7756744,20.7616 46.1598605,18.9580892 C45.3393953,18.0422906 44.9207907,16.9552115 43.9119535,16.2166791 C42.9291628,15.4970245 41.4798605,14.9081324 40.218,14.8257151 C38.9691628,14.7432978 36.5096279,15.1134849 35.6505581,16.1015712" id="Stroke-13" stroke-width="3"></path>
                    <path d="M37.6194419,15.0876547 C38.0933953,14.3684604 38.2282791,13.3218993 37.8343256,12.5405468 C37.5868837,12.0488058 37.1450233,11.656518 36.6250233,11.4658993 C35.3073488,10.9819856 33.6282791,11.5335827 32.7450233,12.6713094 C32.0980465,13.5042302 31.8482791,14.6751079 32.0938605,15.6654964 C32.379907,16.817036 33.1817674,17.1006619 33.2529302,18.4018417 C33.2701395,18.7186187 33.2933953,19.2780432 32.9408372,19.814446 C32.4780465,20.5193669 31.6850233,20.6993957 31.4696744,20.7408345" id="Stroke-15" stroke-width="3"></path>
                    <path d="M47.778,20.4401727 C48.0207907,20.6031655 49.9728837,21.9586763 50.0356744,24.2589928 C50.0473023,24.698705 50.0886977,26.1969496 48.8933488,27.2591655 C47.5663721,28.4387914 45.8263721,28.0897842 45.6375349,28.0483453" id="Stroke-17" stroke-width="3"></path>
                    <path d="M46.134186,11.0566216 C46.134186,11.0566216 44.8309302,11.3987223 44.9927907,13.105082" id="Stroke-19" stroke-width="3"></path>
                    <path d="M25.1703256,10.6914993 C25.5075349,10.9115856 26.9219535,11.8863194 27.3089302,13.7091683 C27.715907,15.6264058 26.6973023,17.1223482 26.4168372,17.5339741 C24.9293953,19.7182619 21.7117209,20.6589237 18.2726512,20.0055712" id="Stroke-21" stroke-width="3"></path>
                    <path d="M18.9462326,14.7265842 C18.5513488,14.6552173 16.1820465,14.2647712 14.2364651,15.8109007 C12.1369302,17.479505 11.8025116,20.4557353 12.7029767,22.6418647 C13.7308837,25.1374043 16.4225116,26.7309583 19.348093,26.5099511 C19.8820465,27.6071597 21.0829767,29.6454906 23.4373953,30.8831309 C25.4066977,31.9177209 27.3866977,31.9798791 28.4025116,32.0033612 C31.4476279,32.0751885 32.6746047,31.1354475 34.9797209,31.8118216" id="Stroke-23" stroke-width="3"></path>
                    <path d="M26.9967442,34.6155281 C27.6530233,35.0510964 28.38,35.6321612 29.08,36.3987799 C30.5697674,38.0277871 31.2260465,39.7134273 31.5195349,40.6697439" id="Stroke-25" stroke-width="3"></path>
                    <path d="M33.5642326,40.2364777 L32.9070233,37.6815424 C33.3730698,37.9380029 33.9628372,38.1995281 34.6707442,38.3809381 C36.3395814,38.8082187 37.7991163,38.5678734 38.6800465,38.3312115 C39.0316744,38.236823 39.3674884,38.0844201 39.6433023,37.8496 C39.8372558,37.6847655 40.0321395,37.4619165 40.1726047,37.1640173 C40.3121395,36.8698014 40.3614419,36.5783482 40.3591163,36.3094561" id="Stroke-27" stroke-width="3"></path>
                    <path d="M37.0085581,29.1397986 C37.0085581,29.1397986 34.0048372,22.7715683 28.5466977,27.0084604" id="Stroke-29" stroke-width="3"></path>
                    <path d="M29.0888372,29.1397986 C29.0888372,29.1397986 29.0655814,26.6898417 26.3372093,26.0461583" id="Stroke-31" stroke-width="3"></path>
                    <path d="M31.0951163,22.3389928 C31.0951163,22.3389928 31.9481395,20.8140432 30.4867442,19.4691223" id="Stroke-33" stroke-width="3"></path>
                    <path d="M19.3127907,26.5674129 C19.8690698,24.3835856 21.657907,22.7564201 23.8011628,22.4626647 C25.1765116,22.2743482 26.3323256,22.6850532 27.1625581,23.1639022" id="Stroke-35" stroke-width="3"></path>
                </g>
            </g>
        </g>
    </g>
</svg>