<?xml version="1.0" encoding="UTF-8"?>
<svg width="29px" height="29px" viewBox="0 0 29 29" version="1.1" xmlns="http://www.w3.org/2000/svg" xmlns:xlink="http://www.w3.org/1999/xlink">
    <!-- Generator: Sketch 46.2 (44496) - http://www.bohemiancoding.com/sketch -->
    <title>fa-plus</title>
    <desc>Created with Sketch.</desc>
    <defs></defs>
    <g id="Symbols" stroke="none" stroke-width="1" fill="none" fill-rule="evenodd">
        <g id="CenterIcon" transform="translate(-349.000000, -318.000000)" fill="#77D9FE">
            <g id="Group-16">
                <path d="M377.469548,330.288505 C377.469548,329.223772 376.605708,328.359931 375.540975,328.359931 L367.183822,328.359931 L367.183822,320.002779 C367.183822,318.938045 366.319982,318.074205 365.255248,318.074205 L361.398101,318.074205 C360.333367,318.074205 359.469527,318.938045 359.469527,320.002779 L359.469527,328.359931 L351.112374,328.359931 C350.047641,328.359931 349.1838,329.223772 349.1838,330.288505 L349.1838,334.145653 C349.1838,335.210386 350.047641,336.074226 351.112374,336.074226 L359.469527,336.074226 L359.469527,344.431379 C359.469527,345.496113 360.333367,346.359953 361.398101,346.359953 L365.255248,346.359953 C366.319982,346.359953 367.183822,345.496113 367.183822,344.431379 L367.183822,336.074226 L375.540975,336.074226 C376.605708,336.074226 377.469548,335.210386 377.469548,334.145653 L377.469548,330.288505 Z" id="fa-plus"></path>
            </g>
        </g>
    </g>
</svg>