<?xml version="1.0" encoding="UTF-8"?>
<svg width="57px" height="76px" viewBox="0 0 57 76" version="1.1" xmlns="http://www.w3.org/2000/svg" xmlns:xlink="http://www.w3.org/1999/xlink">
    <!-- Generator: Sketch 46.2 (44496) - http://www.bohemiancoding.com/sketch -->
    <title>Page 1</title>
    <desc>Created with Sketch.</desc>
    <defs></defs>
    <g id="Symbols" stroke="none" stroke-width="1" fill="none" fill-rule="evenodd">
        <g id="CenterIcon" transform="translate(-62.000000, -22.000000)">
            <g id="Page-1" transform="translate(62.000000, 22.000000)">
                <path d="M53.959,63.8374 C53.959,69.1574 49.652,73.4644 44.417,73.4644 L39.941,73.4644 C40.786,72.3654 41.293,70.9314 41.293,69.4954 C41.293,65.8634 38.337,62.9924 34.791,62.9924 L31.413,62.9924 L46.021,40.7004 C51.933,42.4754 53.959,44.9224 53.959,49.8194 L53.959,63.8374 Z M26.093,73.4644 L24.573,73.4644 L29.809,65.4414 L34.874,65.4414 C37.07,65.4414 38.844,67.2154 38.844,69.4114 C38.844,71.6074 37.07,73.3804 34.874,73.3804 L26.093,73.3804 L26.093,73.4644 Z M2.449,64.0914 L13.512,56.9134 L40.702,39.0954 L40.786,39.0954 C41.63,39.4354 42.475,39.7724 43.487,40.0254 L21.533,73.5484 L11.991,73.5484 C6.84,73.4644 2.618,69.3264 2.449,64.0914 L2.449,64.0914 Z M12.329,40.1924 C18.662,38.5904 21.871,35.2114 21.871,30.1464 C21.871,27.5274 20.857,24.8254 20.857,24.7414 C20.688,24.2344 20.182,23.8974 19.676,23.8974 L19.422,23.8974 C19.168,23.9814 18.409,24.0654 17.396,21.4484 C16.551,19.2524 17.48,18.7464 17.564,18.6614 C18.071,18.4084 18.409,17.8164 18.324,17.3104 C17.396,12.3284 17.986,8.5284 20.098,5.9954 C22.884,2.7024 27.443,2.5334 28.373,2.5334 C29.302,2.5334 33.861,2.7024 36.648,5.9954 C38.76,8.5284 39.351,12.3284 38.422,17.3104 C38.337,17.9014 38.59,18.4924 39.182,18.6614 C39.182,18.6614 40.195,19.2524 39.351,21.4484 C38.337,24.0654 37.577,23.8974 37.324,23.8974 C36.732,23.8124 36.142,24.1504 35.889,24.6564 C35.889,24.7414 34.874,27.4424 34.874,30.0614 C34.874,33.1854 36.142,35.7194 38.59,37.5774 L14.102,53.4514 L14.102,49.5094 C14.102,48.8334 13.512,48.2424 12.836,48.2424 C12.16,48.2424 11.568,48.8334 11.568,49.5094 L11.568,55.0564 L2.449,61.1364 L2.449,49.8194 C2.449,44.5014 4.898,42.0514 12.329,40.1924 L12.329,40.1924 Z M45.684,37.9984 L45.684,37.9984 C45.346,37.9134 45.008,37.8294 44.671,37.7454 C37.831,36.0564 37.07,32.5944 37.07,30.1464 C37.07,28.7954 37.408,27.3594 37.661,26.5144 C39.182,26.3454 40.448,24.9944 41.461,22.4614 C42.56,19.6744 41.799,17.9864 40.87,17.0574 C41.715,11.6524 40.87,7.4304 38.422,4.3914 C35.044,0.3374 29.724,0.0004 28.204,0.0004 C26.684,0.0004 21.364,0.3374 17.986,4.3914 C15.537,7.3464 14.693,11.6524 15.537,17.0574 C14.608,17.9864 13.85,19.7594 14.947,22.4614 C15.96,24.9944 17.142,26.3454 18.746,26.5144 C19,27.3594 19.338,28.7954 19.338,30.1464 C19.338,32.5944 18.578,35.9724 11.738,37.7454 C3.293,39.8574 0,43.2334 0,49.8194 L0,63.4154 L0,63.8374 C0,70.5094 5.404,75.9974 12.076,75.9974 L26.093,75.9974 L34.791,75.9974 L44.417,75.9974 C51.088,75.9974 56.492,70.5094 56.492,63.8374 L56.492,49.8194 C56.492,43.4874 53.452,40.1094 45.684,37.9984 L45.684,37.9984 Z" id="Fill-1" fill="#FFFFFF"></path>
                <path d="M16.9961,13.1421 L39.6211,15.7671" id="Stroke-3" stroke="#FFFFFF" stroke-width="2"></path>
                <path d="M18.7461,6.2671 L39.6211,8.8921" id="Stroke-5" stroke="#FFFFFF" stroke-width="2"></path>
                <path d="M25.6074,7.1299 L32.8624,2.0449" id="Stroke-7" stroke="#FFFFFF" stroke-width="2"></path>
            </g>
        </g>
    </g>
</svg>