<?xml version="1.0" encoding="UTF-8"?>
<svg width="37px" height="21px" viewBox="0 0 37 21" version="1.1" xmlns="http://www.w3.org/2000/svg" xmlns:xlink="http://www.w3.org/1999/xlink">
    <!-- Generator: Sketch 46.2 (44496) - http://www.bohemiancoding.com/sketch -->
    <title>fa-caret-down copy 9</title>
    <desc>Created with Sketch.</desc>
    <defs></defs>
    <g id="Welcome" stroke="none" stroke-width="1" fill="none" fill-rule="evenodd">
        <g id="Desktop-HD-Copy-79" transform="translate(-222.000000, -2479.000000)" fill="#3197FF">
            <path d="M258.571429,2481.28571 C258.571429,2481.90477 258.34524,2482.44047 257.892857,2482.89286 L241.892857,2498.89286 C241.440474,2499.34524 240.904765,2499.57143 240.285714,2499.57143 C239.666664,2499.57143 239.130955,2499.34524 238.678571,2498.89286 L222.678571,2482.89286 C222.226188,2482.44047 222,2481.90477 222,2481.28571 C222,2480.66666 222.226188,2480.13095 222.678571,2479.67857 C223.130955,2479.22619 223.666664,2479 224.285714,2479 L256.285714,2479 C256.904765,2479 257.440474,2479.22619 257.892857,2479.67857 C258.34524,2480.13095 258.571429,2480.66666 258.571429,2481.28571 Z" id="fa-caret-down-copy-9" transform="translate(240.285714, 2489.285714) rotate(-180.000000) translate(-240.285714, -2489.285714) "></path>
        </g>
    </g>
</svg>