<?xml version="1.0" encoding="UTF-8"?>
<svg width="37px" height="21px" viewBox="0 0 37 21" version="1.1" xmlns="http://www.w3.org/2000/svg" xmlns:xlink="http://www.w3.org/1999/xlink">
    <!-- Generator: Sketch 46.2 (44496) - http://www.bohemiancoding.com/sketch -->
    <title>fa-caret-down copy</title>
    <desc>Created with Sketch.</desc>
    <defs></defs>
    <g id="Welcome" stroke="none" stroke-width="1" fill="none" fill-rule="evenodd">
        <g id="Desktop-HD-Copy-79" transform="translate(-135.000000, -1659.000000)" fill="#F9F9F9">
            <path d="M171.571429,1661.28571 C171.571429,1661.90476 171.34524,1662.44047 170.892857,1662.89286 L154.892857,1678.89286 C154.440474,1679.34524 153.904765,1679.57143 153.285714,1679.57143 C152.666664,1679.57143 152.130955,1679.34524 151.678571,1678.89286 L135.678571,1662.89286 C135.226188,1662.44047 135,1661.90476 135,1661.28571 C135,1660.66666 135.226188,1660.13095 135.678571,1659.67857 C136.130955,1659.22619 136.666664,1659 137.285714,1659 L169.285714,1659 C169.904765,1659 170.440474,1659.22619 170.892857,1659.67857 C171.34524,1660.13095 171.571429,1660.66666 171.571429,1661.28571 Z" id="fa-caret-down-copy" transform="translate(153.285714, 1669.285714) rotate(-180.000000) translate(-153.285714, -1669.285714) "></path>
        </g>
    </g>
</svg>