<?xml version="1.0" encoding="UTF-8"?>
<svg width="42px" height="58px" viewBox="0 0 42 58" version="1.1" xmlns="http://www.w3.org/2000/svg" xmlns:xlink="http://www.w3.org/1999/xlink">
    <!-- Generator: Sketch 46.2 (44496) - http://www.bohemiancoding.com/sketch -->
    <title>Page 1</title>
    <desc>Created with Sketch.</desc>
    <defs>
        <polygon id="path-1" points="0.154 0.356 31.584 0.356 31.584 31.7838 0.154 31.7838"></polygon>
    </defs>
    <g id="Welcome" stroke="none" stroke-width="1" fill="none" fill-rule="evenodd">
        <g id="Tablet" transform="translate(-373.000000, -659.000000)">
            <g id="Page-1" transform="translate(373.000000, 659.000000)">
                <path d="M7.98257081,57.5752841 C6.75090777,57.858428 5.64124909,58 4.65359477,58 C3.66594045,58 2.87581699,57.8707386 2.2832244,57.6122159 C1.69063181,57.3536932 1.2258533,56.9392361 0.888888889,56.375 C0.551924473,55.8087121 0.319535221,55.1418876 0.191721133,54.3786301 C0.0639070443,53.6153725 0,52.657197 0,51.5 C0,49.0727588 0.321471799,47.384154 0.966351973,46.4300821 C1.61123215,45.4780619 2.80029049,45 4.53159041,45 C5.5308642,45 6.68700073,45.1641414 8,45.4965278 L7.93028322,47.5298295 C6.77995643,47.3451705 5.82328734,47.2528409 5.06414912,47.2528409 C4.30307432,47.2528409 3.75889615,47.3595328 3.4335512,47.5749684 C3.10820625,47.790404 2.86613411,48.2007576 2.70927136,48.8039773 C2.55434519,49.407197 2.47494553,50.4351326 2.47494553,51.8877841 C2.47494553,53.3404356 2.63374486,54.3458018 2.95521665,54.9059343 C3.2728153,55.4681187 3.91188574,55.7451073 4.87242798,55.7451073 C5.83103365,55.7451073 6.8496732,55.6589331 7.93028322,55.4865846 L7.98257081,57.5752841 Z" id="Fill-1" fill="#0072BB"></path>
                <path d="M15.5774648,47.0117647 L14.3626761,52.7117647 L17.6373239,52.7117647 L16.4225352,47.0117647 L15.5774648,47.0117647 Z M11,57 L13.693662,45 L18.306338,45 L21,57 L18.5704225,57 L18.0950704,54.827451 L13.9049296,54.827451 L13.4295775,57 L11,57 Z" id="Fill-3" fill="#0072BB"></path>
                <polygon id="Fill-5" fill="#0072BB" points="32 57 25 57 25 45 27.4968409 45 27.4968409 54.8470588 32 54.8470588"></polygon>
                <polygon id="Fill-7" fill="#0072BB" points="42 57 35 57 35 45 37.496124 45 37.496124 54.8470588 42 54.8470588"></polygon>
                <g id="Group-11" transform="translate(5.000000, 0.000000)">
                    <mask id="mask-2" fill="white">
                        <use xlink:href="#path-1"></use>
                    </mask>
                    <g id="Clip-10"></g>
                    <path d="M31.584,25.1758 C31.584,25.5778 31.508,26.1018 31.36,26.7498 C31.21,27.3958 31.054,27.9058 30.89,28.2798 C30.578,29.0238 29.67,29.8118 28.168,30.6438 C26.768,31.4038 25.384,31.7838 24.016,31.7838 C23.616,31.7838 23.22,31.7578 22.834,31.7058 C22.446,31.6518 22.018,31.5598 21.548,31.4258 C21.08,31.2938 20.73,31.1838 20.5,31.1018 C20.27,31.0218 19.858,30.8678 19.262,30.6438 C18.666,30.4218 18.302,30.2878 18.168,30.2418 C16.71,29.7218 15.408,29.1058 14.262,28.3898 C12.372,27.2158 10.408,25.6078 8.368,23.5678 C6.33,21.5318 4.722,19.5658 3.546,17.6758 C2.834,16.5318 2.214,15.2278 1.694,13.7698 C1.65,13.6358 1.516,13.2718 1.292,12.6758 C1.07,12.0798 0.918,11.6678 0.834,11.4378 C0.752,11.2078 0.646,10.8578 0.512,10.3878 C0.378,9.9198 0.284,9.4918 0.232,9.1058 C0.18,8.7178 0.154,8.3238 0.154,7.9218 C0.154,6.5518 0.534,5.1678 1.292,3.7698 C2.126,2.2678 2.914,1.3598 3.66,1.0478 C4.03,0.8838 4.54,0.7258 5.188,0.5778 C5.834,0.4298 6.36,0.3558 6.762,0.3558 C6.97,0.3558 7.126,0.3778 7.23,0.4218 C7.498,0.5118 7.892,1.0758 8.414,2.1178 C8.578,2.3998 8.8,2.8018 9.084,3.3238 C9.366,3.8438 9.626,4.3158 9.864,4.7398 C10.102,5.1638 10.334,5.5618 10.556,5.9358 C10.6,5.9938 10.73,6.1798 10.946,6.4918 C11.162,6.8038 11.322,7.0698 11.426,7.2858 C11.53,7.5018 11.584,7.7138 11.584,7.9218 C11.584,8.2178 11.372,8.5918 10.946,9.0378 C10.522,9.4838 10.062,9.8918 9.562,10.2658 C9.064,10.6358 8.602,11.0318 8.178,11.4498 C7.754,11.8658 7.542,12.2078 7.542,12.4738 C7.542,12.6098 7.58,12.7778 7.654,12.9758 C7.728,13.1778 7.792,13.3298 7.844,13.4358 C7.896,13.5398 8,13.7178 8.156,13.9698 C8.312,14.2238 8.398,14.3658 8.414,14.3938 C9.544,16.4338 10.838,18.1818 12.296,19.6398 C13.756,21.0998 15.504,22.3918 17.542,23.5238 C17.572,23.5398 17.714,23.6258 17.966,23.7818 C18.22,23.9378 18.398,24.0418 18.502,24.0938 C18.608,24.1458 18.76,24.2098 18.96,24.2838 C19.162,24.3578 19.328,24.3938 19.462,24.3938 C19.73,24.3938 20.072,24.1838 20.49,23.7578 C20.904,23.3338 21.298,22.8738 21.672,22.3758 C22.044,21.8778 22.454,21.4138 22.9,20.9898 C23.346,20.5658 23.716,20.3558 24.016,20.3558 C24.224,20.3558 24.436,20.4058 24.652,20.5118 C24.868,20.6158 25.13,20.7758 25.444,20.9898 C25.756,21.2078 25.944,21.3358 26.002,21.3818 C26.374,21.6058 26.772,21.8358 27.198,22.0738 C27.622,22.3118 28.092,22.5718 28.616,22.8558 C29.134,23.1358 29.538,23.3618 29.818,23.5238 C30.862,24.0458 31.428,24.4398 31.516,24.7078 C31.56,24.8118 31.584,24.9678 31.584,25.1758" id="Fill-9" fill="#0072BB" mask="url(#mask-2)"></path>
                </g>
            </g>
        </g>
    </g>
</svg>