<?xml version="1.0" encoding="UTF-8"?>
<svg width="46px" height="37px" viewBox="0 0 46 37" version="1.1" xmlns="http://www.w3.org/2000/svg" xmlns:xlink="http://www.w3.org/1999/xlink">
    <!-- Generator: Sketch 46.2 (44496) - http://www.bohemiancoding.com/sketch -->
    <title>Group 5</title>
    <desc>Created with Sketch.</desc>
    <defs></defs>
    <g id="Welcome" stroke="none" stroke-width="1" fill="none" fill-rule="evenodd">
        <g id="Desktop-HD-Copy-79" transform="translate(-591.000000, -2414.000000)">
            <g id="Group-10" transform="translate(591.000000, 2414.000000)">
                <g id="Group-5">
                    <g id="Page-1" transform="translate(0.000000, 0.520176)">
                        <path d="M38.7725046,25.2111889 L16.1882468,25.2111889 C15.475951,25.2111889 14.8461746,24.7564277 14.6251173,24.086343 L7.8005653,3.25417872 L1.64220159,3.25417872 C0.735134065,3.25417872 0,2.52519489 0,1.62740947 C0,0.728770434 0.735134065,0 1.64220159,0 L8.99418861,0 C9.7049762,0 10.3362607,0.454334481 10.554948,1.12463256 L17.3818701,21.9572236 L38.7725046,21.9572236 C39.6795721,21.9572236 40.4144908,22.6855673 40.4144908,23.5844197 C40.4144908,24.4830587 39.6795721,25.2111889 38.7725046,25.2111889" id="Fill-1" fill="#EC1C24"></path>
                        <path d="M36.7862067,30.4956732 C35.955195,30.4956732 35.2790957,31.1653311 35.2790957,31.9882121 C35.2790957,32.8119468 35.955195,33.481818 36.7862067,33.481818 C37.6174339,33.481818 38.2937487,32.8119468 38.2937487,31.9882121 C38.2937487,31.1653311 37.6174339,30.4956732 36.7862067,30.4956732 M36.7862067,36.4694567 C34.2918788,36.4694567 32.2627191,34.4592027 32.2627191,31.9882121 C32.2627191,29.5178617 34.2918788,27.5080345 36.7862067,27.5080345 C39.2807502,27.5080345 41.3101252,29.5178617 41.3101252,31.9882121 C41.3101252,34.4592027 39.2807502,36.4694567 36.7862067,36.4694567" id="Fill-8" fill="#EC1C24"></path>
                        <path d="M19.1905145,30.4956732 C18.3584255,30.4956732 17.6812489,31.1653311 17.6812489,31.9882121 C17.6812489,32.8119468 18.3584255,33.481818 19.1905145,33.481818 C20.0215262,33.481818 20.697841,32.8119468 20.697841,31.9882121 C20.697841,31.1653311 20.0215262,30.4956732 19.1905145,30.4956732 M19.1905145,36.4694567 C16.6951092,36.4694567 14.6648723,34.4592027 14.6648723,31.9882121 C14.6648723,29.5178617 16.6951092,27.5080345 19.1905145,27.5080345 C21.6848425,27.5080345 23.7142175,29.5178617 23.7142175,31.9882121 C23.7142175,34.4592027 21.6848425,36.4694567 19.1905145,36.4694567" id="Fill-10" fill="#EC1C24"></path>
                        <path d="M41.7629223,18.3006534 L16.3064276,18.3006534 C15.4004373,18.3006534 14.6648723,17.5718829 14.6648723,16.6738841 C14.6648723,15.7754585 15.4004373,15.046688 16.3064276,15.046688 L41.7629223,15.046688 C42.669128,15.046688 43.4049084,15.7754585 43.4049084,16.6738841 C43.4049084,17.5718829 42.669128,18.3006534 41.7629223,18.3006534" id="Fill-3" fill="#EC1C24"></path>
                        <polygon id="Clip-6" points="45.9635735 9.22668183 45.9635735 12.4804338 12.367839 12.4804338 12.367839 9.22668183 45.9635735 9.22668183"></polygon>
                        <path d="M44.3216089,11.6014176 L14.0091788,11.6014176 C13.1023267,11.6014176 12.367839,10.8722204 12.367839,9.97528856 C12.367839,9.07664953 13.1023267,8.34766569 14.0091788,8.34766569 L44.3216089,8.34766569 C45.228461,8.34766569 45.963595,9.07664953 45.963595,9.97528856 C45.963595,10.8722204 45.228461,11.6014176 44.3216089,11.6014176" id="Fill-5" fill="#EC1C24"></path>
                    </g>
                </g>
            </g>
        </g>
    </g>
</svg>