<?xml version="1.0" encoding="UTF-8"?>
<svg width="26px" height="21px" viewBox="0 0 26 21" version="1.1" xmlns="http://www.w3.org/2000/svg" xmlns:xlink="http://www.w3.org/1999/xlink">
    <!-- Generator: Sketch 46.2 (44496) - http://www.bohemiancoding.com/sketch -->
    <title>Group 5</title>
    <desc>Created with Sketch.</desc>
    <defs></defs>
    <g id="Welcome" stroke="none" stroke-width="1" fill="none" fill-rule="evenodd">
        <g id="MobileMenu" transform="translate(-122.000000, -423.000000)">
            <g id="Group-5" transform="translate(122.000000, 423.000000)">
                <g id="Page-1" transform="translate(0.000000, 0.287882)">
                    <path d="M21.7094045,13.9526794 L9.06408292,13.9526794 C8.66525603,13.9526794 8.31263323,13.7009999 8.18885937,13.3301536 L4.36767315,1.80096672 L0.919497438,1.80096672 C0.41161444,1.80096672 0,1.39752372 0,0.900660517 C0,0.403324897 0.41161444,0 0.919497438,0 L5.03600374,0 C5.43398617,0 5.78745344,0.251443252 5.90990029,0.622407675 L9.73241351,12.1518308 L21.7094045,12.1518308 C22.2172875,12.1518308 22.6287813,12.5549194 22.6287813,13.0523732 C22.6287813,13.5497088 22.2172875,13.9526794 21.7094045,13.9526794" id="Fill-1" fill="#626262"></path>
                    <path d="M20.5972415,16.8772822 C20.1319435,16.8772822 19.7533836,17.2478923 19.7533836,17.703301 C19.7533836,18.1591822 20.1319435,18.5299104 20.5972415,18.5299104 C21.0626602,18.5299104 21.4413406,18.1591822 21.4413406,17.703301 C21.4413406,17.2478923 21.0626602,16.8772822 20.5972415,16.8772822 M20.5972415,20.1833653 C19.2006236,20.1833653 18.0644616,19.0708263 18.0644616,17.703301 C18.0644616,16.33613 19.2006236,15.2238273 20.5972415,15.2238273 C21.9939801,15.2238273 23.1302627,16.33613 23.1302627,17.703301 C23.1302627,19.0708263 21.9939801,20.1833653 20.5972415,20.1833653" id="Fill-8" fill="#626262"></path>
                    <path d="M10.7451052,16.8772822 C10.279204,16.8772822 9.90004098,17.2478923 9.90004098,17.703301 C9.90004098,18.1591822 10.279204,18.5299104 10.7451052,18.5299104 C11.2104032,18.5299104 11.5890837,18.1591822 11.5890837,17.703301 C11.5890837,17.2478923 11.2104032,16.8772822 10.7451052,16.8772822 M10.7451052,20.1833653 C9.34788409,20.1833653 8.21111889,19.0708263 8.21111889,17.703301 C8.21111889,16.33613 9.34788409,15.2238273 10.7451052,15.2238273 C12.1417231,15.2238273 13.2780058,16.33613 13.2780058,17.703301 C13.2780058,19.0708263 12.1417231,20.1833653 10.7451052,20.1833653" id="Fill-10" fill="#626262"></path>
                    <path d="M23.3837917,10.1281677 L9.13025442,10.1281677 C8.62297461,10.1281677 8.21111889,9.72484277 8.21111889,9.22786146 C8.21111889,8.73064395 8.62297461,8.32731905 9.13025442,8.32731905 L23.3837917,8.32731905 C23.8911922,8.32731905 24.3031685,8.73064395 24.3031685,9.22786146 C24.3031685,9.72484277 23.8911922,10.1281677 23.3837917,10.1281677" id="Fill-3" fill="#626262"></path>
                    <polygon id="Clip-6" points="25.7358099 5.10634122 25.7358099 6.90707173 6.9249697 6.90707173 6.9249697 5.10634122 25.7358099 5.10634122"></polygon>
                    <path d="M24.8164452,6.42059605 L7.84398459,6.42059605 C7.33622223,6.42059605 6.9249697,6.01703495 6.9249697,5.52064416 C6.9249697,5.02330854 7.33622223,4.61986554 7.84398459,4.61986554 L24.8164452,4.61986554 C25.3242075,4.61986554 25.735822,5.02330854 25.735822,5.52064416 C25.735822,6.01703495 25.3242075,6.42059605 24.8164452,6.42059605" id="Fill-5" fill="#626262"></path>
                </g>
            </g>
        </g>
    </g>
</svg>