<?xml version="1.0" encoding="UTF-8"?>
<svg width="18px" height="18px" viewBox="0 0 18 18" version="1.1" xmlns="http://www.w3.org/2000/svg" xmlns:xlink="http://www.w3.org/1999/xlink">
    <!-- Generator: Sketch 46.2 (44496) - http://www.bohemiancoding.com/sketch -->
    <title>fa-minus-circle</title>
    <desc>Created with Sketch.</desc>
    <defs></defs>
    <g id="Welcome" stroke="none" stroke-width="1" fill="none" fill-rule="evenodd">
        <g id="WhenClickSearchIcon" transform="translate(-730.000000, -41.000000)" fill="#BDBDBD">
            <path d="M743.571429,50.5714286 L743.571429,49.1428571 C743.571429,48.9494038 743.500745,48.7819948 743.359375,48.640625 C743.218005,48.4992552 743.050596,48.4285714 742.857143,48.4285714 L734.285714,48.4285714 C734.092261,48.4285714 733.924852,48.4992552 733.783482,48.640625 C733.642112,48.7819948 733.571429,48.9494038 733.571429,49.1428571 L733.571429,50.5714286 C733.571429,50.7648819 733.642112,50.932291 733.783482,51.0736607 C733.924852,51.2150305 734.092261,51.2857143 734.285714,51.2857143 L742.857143,51.2857143 C743.050596,51.2857143 743.218005,51.2150305 743.359375,51.0736607 C743.500745,50.932291 743.571429,50.7648819 743.571429,50.5714286 Z M747.142857,49.8571429 C747.142857,51.4122102 746.759676,52.8463476 745.993304,54.1595982 C745.226931,55.4728488 744.187135,56.512645 742.873884,57.2790179 C741.560633,58.0453907 740.126496,58.4285714 738.571429,58.4285714 C737.016361,58.4285714 735.582224,58.0453907 734.268973,57.2790179 C732.955723,56.512645 731.915926,55.4728488 731.149554,54.1595982 C730.383181,52.8463476 730,51.4122102 730,49.8571429 C730,48.3020756 730.383181,46.8679381 731.149554,45.5546875 C731.915926,44.2414369 732.955723,43.2016407 734.268973,42.4352679 C735.582224,41.668895 737.016361,41.2857143 738.571429,41.2857143 C740.126496,41.2857143 741.560633,41.668895 742.873884,42.4352679 C744.187135,43.2016407 745.226931,44.2414369 745.993304,45.5546875 C746.759676,46.8679381 747.142857,48.3020756 747.142857,49.8571429 Z" id="fa-minus-circle"></path>
        </g>
    </g>
</svg>