<?xml version="1.0" encoding="UTF-8"?>
<svg width="365px" height="433px" viewBox="0 0 365 433" version="1.1" xmlns="http://www.w3.org/2000/svg" xmlns:xlink="http://www.w3.org/1999/xlink">
    <!-- Generator: Sketch 46.2 (44496) - http://www.bohemiancoding.com/sketch -->
    <title>Page 1</title>
    <desc>Created with Sketch.</desc>
    <defs>
        <polygon id="path-1" points="66.689 83 0.322 83 0.322 0.1591 66.689 0.1591 66.689 83"></polygon>
        <polygon id="path-3" points="55.9976 83 0.6926 83 0.6926 0.1593 55.9976 0.1593"></polygon>
        <polygon id="path-5" points="0.4423 0.408 300.6043 0.408 300.6043 300.56915 0.4423 300.56915"></polygon>
    </defs>
    <g id="Welcome" stroke="none" stroke-width="1" fill="none" fill-rule="evenodd">
        <g id="Tablet" transform="translate(-131.000000, -22.000000)">
            <g id="Page-1" transform="translate(131.000000, 21.000000)">
                <path d="M53.8931,430.8859 C45.5771,432.6899 38.0851,433.5919 31.4181,433.5919 C24.7491,433.5919 19.4151,432.7679 15.4141,431.1209 C11.4141,429.4739 8.2751,426.8459 6.0011,423.2369 C3.7251,419.6289 2.1561,415.3939 1.2941,410.5289 C0.4301,405.6649 0.0001,399.5459 0.0001,392.1719 C0.0001,376.7179 2.1771,365.9509 6.5311,359.8709 C10.8841,353.7919 18.9041,350.7509 30.5941,350.7509 C37.3401,350.7509 45.1451,351.8109 54.0111,353.9289 L53.5401,366.8719 C45.7741,365.6959 39.3201,365.1079 34.1831,365.1079 C29.0441,365.1079 25.3761,365.7949 23.1811,367.1659 C20.9841,368.5399 19.3571,371.1489 18.2981,374.9909 C17.2391,378.8359 16.7091,385.3869 16.7091,394.6429 C16.7091,403.9009 17.7871,410.3139 19.9451,413.8819 C22.1011,417.4519 26.4171,419.2369 32.8891,419.2369 C39.3611,419.2369 46.2451,418.6879 53.5401,417.5889 L53.8931,430.8859 Z" id="Fill-1" fill="#0072BB"></path>
                <polygon id="Fill-3" fill="#0072BB" points="125.0845 432.1799 79.5455 432.1799 79.5455 352.1629 95.7845 352.1629 95.7845 417.8249 125.0845 417.8249"></polygon>
                <g id="Group-7" transform="translate(143.000000, 350.592000)">
                    <mask id="mask-2" fill="white">
                        <use xlink:href="#path-1"></use>
                    </mask>
                    <g id="Clip-6"></g>
                    <path d="M20.502,62.7021 C22.815,66.8201 27.15,68.8801 33.505,68.8801 C39.859,68.8801 44.193,66.8201 46.508,62.7021 C48.821,58.5831 49.98,51.6811 49.98,41.9911 C49.98,32.3041 48.803,25.2641 46.449,20.8691 C44.095,16.4771 39.78,14.2801 33.505,14.2801 C27.228,14.2801 22.915,16.4771 20.561,20.8691 C18.208,25.2641 17.031,32.3041 17.031,41.9911 C17.031,51.6811 18.188,58.5831 20.502,62.7021 M59.217,73.0561 C54.233,79.6861 45.664,83.0001 33.505,83.0001 C21.344,83.0001 12.774,79.6861 7.794,73.0561 C2.811,66.4291 0.322,56.0541 0.322,41.9321 C0.322,27.8121 2.811,17.3211 7.794,10.4561 C12.774,3.5921 21.344,0.1591 33.505,0.1591 C45.664,0.1591 54.233,3.5921 59.217,10.4561 C64.197,17.3211 66.689,27.8121 66.689,41.9321 C66.689,56.0541 64.197,66.4291 59.217,73.0561" id="Fill-5" fill="#0072BB" mask="url(#mask-2)"></path>
                </g>
                <g id="Group-10" transform="translate(231.000000, 350.592000)">
                    <mask id="mask-4" fill="white">
                        <use xlink:href="#path-3"></use>
                    </mask>
                    <g id="Clip-9"></g>
                    <path d="M29.6396,14.2803 C21.0886,14.2803 16.8136,17.1043 16.8136,22.7523 C16.8136,25.2633 17.8726,27.1853 19.9916,28.5183 C22.1086,29.8523 27.0696,31.7743 34.8756,34.2843 C42.6806,36.7963 48.1526,39.6373 51.2906,42.8153 C54.4276,45.9923 55.9976,50.8763 55.9976,57.4653 C55.9976,65.8603 53.4486,72.2153 48.3496,76.5283 C43.2486,80.8433 36.5816,83.0003 28.3456,83.0003 C22.2266,83.0003 14.7346,82.0583 5.8696,80.1763 L1.6336,79.3523 L3.2816,66.7613 C13.7926,68.1743 21.8326,68.8803 27.4046,68.8803 C35.7186,68.8803 39.8766,65.4283 39.8766,58.5243 C39.8766,56.0143 38.9156,54.0523 36.9936,52.6403 C35.0716,51.2283 31.2466,49.6993 25.5216,48.0513 C16.4196,45.4633 10.0066,42.3843 6.2826,38.8143 C2.5556,35.2463 0.6926,30.2833 0.6926,23.9283 C0.6926,15.9273 3.1226,9.9673 7.9886,6.0433 C12.8516,2.1213 19.5206,0.1593 27.9926,0.1593 C33.7966,0.1593 41.1716,0.9443 50.1146,2.5123 L54.3506,3.3373 L53.0566,16.1633 C41.9946,14.9093 34.1886,14.2803 29.6396,14.2803" id="Fill-8" fill="#0072BB" mask="url(#mask-4)"></path>
                </g>
                <polygon id="Fill-11" fill="#0072BB" points="312.5322 432.1799 312.5322 352.1629 364.3072 352.1629 364.3072 366.2839 328.7702 366.2839 328.7702 384.9929 357.2472 384.9929 357.2472 398.8789 328.7702 398.8789 328.7702 418.0599 364.3072 418.0599 364.3072 432.1799"></polygon>
                <path d="M281.5384,11.3223 L27.6824,265.1783 C18.6414,274.2193 18.6414,288.8793 27.6824,297.9213 L27.6824,297.9213 C36.7244,306.9633 51.3844,306.9633 60.4254,297.9213 L314.2814,44.0653 C323.3234,35.0233 323.3234,20.3643 314.2814,11.3223 L314.2814,11.3223 C305.2394,2.2803 290.5804,2.2803 281.5384,11.3223" id="Fill-13" fill="#0072BB"></path>
                <g id="Group-17" transform="translate(24.000000, 0.592000)">
                    <mask id="mask-6" fill="white">
                        <use xlink:href="#path-5"></use>
                    </mask>
                    <g id="Clip-16"></g>
                    <path d="M7.2238,39.9324 L261.0798,293.7884 C270.1208,302.8294 284.7808,302.8294 293.8228,293.7884 L293.8228,293.7884 C302.8648,284.7464 302.8648,270.0864 293.8228,261.0454 L39.9668,7.1894 C30.9248,-1.8526 16.2658,-1.8526 7.2238,7.1894 L7.2238,7.1894 C-1.8182,16.2314 -1.8182,30.8904 7.2238,39.9324" id="Fill-15" fill="#0072BB" mask="url(#mask-6)"></path>
                </g>
            </g>
        </g>
    </g>
</svg>