<?xml version="1.0" encoding="UTF-8"?>
<svg width="21px" height="20px" viewBox="0 0 21 20" version="1.1" xmlns="http://www.w3.org/2000/svg" xmlns:xlink="http://www.w3.org/1999/xlink">
    <!-- Generator: Sketch 46.2 (44496) - http://www.bohemiancoding.com/sketch -->
    <title>fa-angle-double-down</title>
    <desc>Created with Sketch.</desc>
    <defs></defs>
    <g id="Welcome" stroke="none" stroke-width="1" fill="none" fill-rule="evenodd">
        <g id="Mobile-Portrait-Copy" transform="translate(-145.000000, -404.000000)" fill="#0072BB">
            <path d="M165.595982,413.5 C165.595982,413.674108 165.529019,413.828124 165.395089,413.962054 L156.033482,423.323661 C155.899553,423.45759 155.745537,423.524554 155.571429,423.524554 C155.397321,423.524554 155.243304,423.45759 155.109375,423.323661 L145.747768,413.962054 C145.613839,413.828124 145.546875,413.674108 145.546875,413.5 C145.546875,413.325892 145.613839,413.171876 145.747768,413.037946 L146.752232,412.033482 C146.886161,411.899553 147.040178,411.832589 147.214286,411.832589 C147.388394,411.832589 147.54241,411.899553 147.676339,412.033482 L155.571429,419.928571 L163.466518,412.033482 C163.600447,411.899553 163.754463,411.832589 163.928571,411.832589 C164.102679,411.832589 164.256696,411.899553 164.390625,412.033482 L165.395089,413.037946 C165.529019,413.171876 165.595982,413.325892 165.595982,413.5 Z M165.595982,405.785714 C165.595982,405.959822 165.529019,406.113839 165.395089,406.247768 L156.033482,415.609375 C155.899553,415.743304 155.745537,415.810268 155.571429,415.810268 C155.397321,415.810268 155.243304,415.743304 155.109375,415.609375 L145.747768,406.247768 C145.613839,406.113839 145.546875,405.959822 145.546875,405.785714 C145.546875,405.611606 145.613839,405.45759 145.747768,405.323661 L146.752232,404.319196 C146.886161,404.185267 147.040178,404.118304 147.214286,404.118304 C147.388394,404.118304 147.54241,404.185267 147.676339,404.319196 L155.571429,412.214286 L163.466518,404.319196 C163.600447,404.185267 163.754463,404.118304 163.928571,404.118304 C164.102679,404.118304 164.256696,404.185267 164.390625,404.319196 L165.395089,405.323661 C165.529019,405.45759 165.595982,405.611606 165.595982,405.785714 Z" id="fa-angle-double-down"></path>
        </g>
    </g>
</svg>