<?xml version="1.0" encoding="UTF-8"?>
<svg width="19px" height="15px" viewBox="0 0 19 15" version="1.1" xmlns="http://www.w3.org/2000/svg" xmlns:xlink="http://www.w3.org/1999/xlink">
    <!-- Generator: Sketch 46.2 (44496) - http://www.bohemiancoding.com/sketch -->
    <title>fa-envelope</title>
    <desc>Created with Sketch.</desc>
    <defs></defs>
    <g id="Welcome" stroke="none" stroke-width="1" fill="none" fill-rule="evenodd" opacity="0.676714086">
        <g id="Desktop-HD-Copy-79" transform="translate(-293.000000, -3913.000000)" fill="#0072BB">
            <g id="Group-6" transform="translate(270.000000, 3899.000000)">
                <path d="M42,18.8136161 L42,27.2321429 C42,28.1651786 41.2366071,28.9285714 40.3035714,28.9285714 L24.6964286,28.9285714 C23.7633929,28.9285714 23,28.1651786 23,27.2321429 L23,18.8136161 C23.3180804,19.1635045 23.6785714,19.4709821 24.0708705,19.7360491 C25.8309152,20.9341518 27.6121652,22.1322545 29.3404018,23.3939732 C30.2310268,24.0513393 31.3337054,24.8571429 32.4893973,24.8571429 L32.5106027,24.8571429 C33.6662946,24.8571429 34.7689732,24.0513393 35.6595982,23.3939732 C37.3878348,22.1428571 39.1690848,20.9341518 40.9397321,19.7360491 C41.3214286,19.4709821 41.6819196,19.1635045 42,18.8136161 Z M42,15.6964286 C42,16.8839286 41.1199777,17.9547991 40.186942,18.6015625 C38.5329241,19.7466518 36.8683036,20.8917411 35.2248884,22.047433 C34.5357143,22.5245536 33.3694196,23.5 32.5106027,23.5 L32.4893973,23.5 C31.6305804,23.5 30.4642857,22.5245536 29.7751116,22.047433 C28.1316964,20.8917411 26.4670759,19.7466518 24.8236607,18.6015625 C24.0708705,18.0926339 23,16.8945312 23,15.9296875 C23,14.890625 23.561942,14 24.6964286,14 L40.3035714,14 C41.2260045,14 42,14.7633929 42,15.6964286 Z" id="fa-envelope"></path>
            </g>
        </g>
    </g>
</svg>