<?xml version="1.0" encoding="UTF-8"?>
<svg width="44px" height="56px" viewBox="0 0 44 56" version="1.1" xmlns="http://www.w3.org/2000/svg" xmlns:xlink="http://www.w3.org/1999/xlink">
    <!-- Generator: Sketch 46.2 (44496) - http://www.bohemiancoding.com/sketch -->
    <title>Page 1</title>
    <desc>Created with Sketch.</desc>
    <defs></defs>
    <g id="Welcome" stroke="none" stroke-width="1" fill="none" fill-rule="evenodd">
        <g id="Hover-&amp;-Focus-Effect" transform="translate(-584.000000, -519.000000)">
            <g id="Page-1" transform="translate(585.000000, 519.000000)">
                <path d="M30.9213164,13.8824583 C31.4444073,13.7396111 31.9736073,13.7548889 32.13168,14.3239861 C32.33328,15.046625 32.2874618,15.7119722 32.0690618,16.3330139 C31.8659345,16.9059306 31.0389164,17.4291944 30.6013527,17.920375 C30.3974618,18.14725 29.9430982,18.2404444 29.6628436,18.1946111 C29.1565527,19.529125 28.5341891,20.8445417 27.7705527,22.0491944 C26.01648,24.8152361 23.6255345,26.8288472 20.7443345,26.8288472 C17.8623709,26.8288472 15.4721891,24.8152361 13.7181164,22.0491944 C12.9529527,20.8430139 12.33288,19.5314167 11.8265891,18.1946111 C11.5463345,18.2404444 11.0912073,18.14725 10.88808,17.920375 C10.4497527,17.4291944 9.62273455,16.9059306 9.42037091,16.3330139 C9.20197091,15.7119722 9.15615273,15.046625 9.35775273,14.3239861 C9.48375273,13.8664167 9.85106182,13.767875 10.2603709,13.8190556 C9.85564364,12.0575278 9.49749818,9.88273611 9.87931636,8.11509722 C10.4298982,5.56447222 11.2294255,4.87697222 12.67728,4.32086111 C14.1251345,1.70836111 16.8009164,0.000305555555 20.4625527,0.000305555555 C24.1241891,0.000305555555 27.60408,1.12475 29.7758618,5.45829167 L29.7750982,5.45829167 C29.9209527,5.56829167 30.0721527,5.67218056 30.2317527,5.76843056 C32.1522982,6.92266667 31.3695709,11.9368333 30.9213164,13.8824583 M27.3161891,6.86613889 C24.7671709,9.13565278 20.7397527,9.61690278 17.3919709,8.33051389 C18.5771345,8.91106944 20.0853164,9.29377778 21.71568,9.36176389 C22.3678255,9.3885 23.0016436,9.36176389 23.6018618,9.28843056 C24.2135345,9.21433333 24.7801527,9.09134722 25.2887345,8.92863889 C25.6193891,8.82245833 25.9737164,9.00426389 26.0798618,9.33502778 C26.1860073,9.66579167 26.0042618,10.0202361 25.6736073,10.1264167 C25.0817891,10.3158611 24.4349891,10.4571806 23.7500073,10.5404444 C23.0970982,10.6198889 22.3976073,10.6489167 21.6660436,10.6183611 C19.59888,10.5328056 17.6936073,9.98356944 16.2869891,9.16697222 C15.3522982,8.62461111 14.62608,7.95697222 14.1908073,7.21370833 C13.2500073,8.14794444 12.7650982,9.28002778 12.4619345,10.3502361 C12.4413164,10.6038472 12.4298618,10.85975 12.4298618,11.1179444 C12.4298618,14.2116944 13.55088,18.566625 15.2102618,21.165375 C16.67568,23.4593333 18.5794255,25.1299583 20.7443345,25.1299583 C22.90848,25.1299583 24.8122255,23.4593333 26.2776436,21.165375 C28.5723709,17.5712778 30.1439345,10.564125 27.3161891,6.86613889" id="Fill-1" fill="#FFFFFF"></path>
                <path d="M2.59033091,54.3521458 C2.59033091,54.3521458 7.63636363e-05,54.0527014 7.63636363e-05,51.3309653 C7.63636363e-05,48.6099931 1.68542182,35.5192292 2.59033091,34.0991597 C3.49524,32.6798542 5.54178545,30.8656181 8.56273091,30.0536042 C11.5829127,29.2415903 12.85284,28.8161042 12.85284,28.8161042 L14.3785855,28.2317292 C14.3785855,28.2317292 16.5450218,36.7345764 20.7442582,42.1192292 C20.7442582,42.1192292 25.1550218,36.8270069 27.1091673,28.2317292 L34.6027309,30.5577708 C34.6027309,30.5577708 38.4659673,32.0366597 39.2884036,35.6353403 C40.1100764,39.2340208 41.4876764,51.3309653 41.4876764,51.3309653 C41.4876764,51.3309653 41.3601491,54.3521458 37.2563673,54.3521458 L2.59033091,54.3521458 Z" id="Stroke-3" stroke="#FFFFFF" stroke-width="2"></path>
                <path d="M22.6928291,38.5603472 L21.7466836,32.9992361 L22.2942109,31.6861111 L20.5409018,30.2209722 L18.7883564,31.6861111 L19.3358836,32.9992361 L18.3889745,38.5626389 L20.7440291,42.2759028 C20.7440291,42.2759028 22.8829745,39.6763889 22.6928291,38.5603472" id="Fill-5" fill="#FFFFFF"></path>
                <path d="M33.5709055,29.9334444 C33.8114509,31.4933056 33.6724691,33.1639306 33.2875964,34.8345556 C35.2997782,35.6511528 36.5445055,37.6594167 36.1413055,40.2062222 C35.5937782,43.6651111 36.3490145,49.9007361 31.8909055,48.9030972 C30.8661055,48.6739306 31.2158509,47.1255278 32.2406509,47.3554583 C33.2486509,47.5808056 33.6961418,46.8986528 33.93516,45.8414306 C34.2749782,44.3350417 34.2803236,41.7729583 34.5666873,39.9640694 C35.2356327,35.7344167 29.55036,34.4541389 28.3346509,38.5676806 C27.8214873,40.3017083 26.71956,42.6246944 26.37516,44.1501806 C26.1361418,45.2081667 26.2476327,46.0148333 27.2548691,46.2394167 C28.2789055,46.4685833 27.92916,48.0169861 26.9051236,47.7885833 C22.4515964,46.7924722 25.8031964,41.50025 26.8027964,38.1200417 C27.5404691,35.6259444 29.5572327,34.3471944 31.7297782,34.480875 C32.1261055,32.7674722 32.2505782,31.0357361 31.8511964,29.4720556 L33.5709055,29.9334444 Z" id="Fill-7" fill="#FFFFFF"></path>
                <path d="M11.40048,29.3418889 C9.43488,33.5990417 9.85488,39.6490417 11.4936436,43.8305694 C12.7971709,43.7327917 13.9044436,44.7564028 13.9044436,46.0527222 C13.9044436,47.2833472 12.9010255,48.2809861 11.6639345,48.2809861 C9.68535273,48.2809861 8.69338909,45.9114028 10.0488436,44.5081389 C8.35357091,40.2433472 7.87706182,34.3766806 9.47153455,29.85675 L11.40048,29.3418889 Z" id="Fill-9" fill="#FFFFFF"></path>
            </g>
        </g>
    </g>
</svg>