<?xml version="1.0" encoding="UTF-8"?>
<svg width="18px" height="18px" viewBox="0 0 18 18" version="1.1" xmlns="http://www.w3.org/2000/svg" xmlns:xlink="http://www.w3.org/1999/xlink">
    <!-- Generator: Sketch 46.2 (44496) - http://www.bohemiancoding.com/sketch -->
    <title>fa-globe</title>
    <desc>Created with Sketch.</desc>
    <defs></defs>
    <g id="Symbols" stroke="none" stroke-width="1" fill="none" fill-rule="evenodd">
        <g id="InternationalNav" transform="translate(-470.000000, -10.000000)" fill="#0072BB">
            <g id="Group-16" transform="translate(0.000000, -6.000000)">
                <path d="M478.571429,16.2857143 C480.126496,16.2857143 481.560633,16.668895 482.873884,17.4352679 C484.187135,18.2016407 485.226931,19.2414369 485.993304,20.5546875 C486.759676,21.8679381 487.142857,23.3020756 487.142857,24.8571429 C487.142857,26.4122102 486.759676,27.8463476 485.993304,29.1595982 C485.226931,30.4728488 484.187135,31.512645 482.873884,32.2790179 C481.560633,33.0453907 480.126496,33.4285714 478.571429,33.4285714 C477.016361,33.4285714 475.582224,33.0453907 474.268973,32.2790179 C472.955723,31.512645 471.915926,30.4728488 471.149554,29.1595982 C470.383181,27.8463476 470,26.4122102 470,24.8571429 C470,23.3020756 470.383181,21.8679381 471.149554,20.5546875 C471.915926,19.2414369 472.955723,18.2016407 474.268973,17.4352679 C475.582224,16.668895 477.016361,16.2857143 478.571429,16.2857143 Z M481.629464,22.1004464 C481.614583,22.1078869 481.579241,22.1432289 481.523438,22.2064732 C481.467634,22.2697176 481.417411,22.3050595 481.372768,22.3125 C481.387649,22.3125 481.40439,22.293899 481.422991,22.2566964 C481.441592,22.2194939 481.460193,22.1785717 481.478795,22.1339286 C481.497396,22.0892855 481.510417,22.0632441 481.517857,22.0558036 C481.5625,22.00372 481.644345,21.947917 481.763393,21.8883929 C481.86756,21.8437498 482.06101,21.7991074 482.34375,21.7544643 C482.596727,21.6949402 482.786458,21.7358624 482.912946,21.8772321 C482.898065,21.8623511 482.933407,21.8139885 483.018973,21.7321429 C483.104539,21.6502972 483.158482,21.6056548 483.180804,21.5982143 C483.203125,21.5833333 483.258928,21.5665924 483.348214,21.5479911 C483.4375,21.5293898 483.493303,21.5014883 483.515625,21.4642857 L483.537946,21.21875 C483.44866,21.2261905 483.383557,21.2001491 483.342634,21.140625 C483.301711,21.0811009 483.27753,21.0029767 483.270089,20.90625 C483.270089,20.921131 483.247768,20.9508926 483.203125,20.9955357 C483.203125,20.9434521 483.186384,20.9136905 483.152902,20.90625 C483.119419,20.8988095 483.076637,20.9025297 483.024554,20.9174107 C482.97247,20.9322917 482.938988,20.9360119 482.924107,20.9285714 C482.849702,20.9062499 482.793899,20.8783484 482.756696,20.8448661 C482.719494,20.8113838 482.689732,20.7500004 482.667411,20.6607143 C482.645089,20.5714281 482.630208,20.5156251 482.622768,20.4933036 C482.607887,20.456101 482.572545,20.4151788 482.516741,20.3705357 C482.460937,20.3258926 482.425595,20.2886906 482.410714,20.2589286 C482.403274,20.2440475 482.393973,20.2235864 482.382812,20.1975446 C482.371652,20.1715028 482.360491,20.1473215 482.34933,20.125 C482.33817,20.1026785 482.323289,20.0822174 482.304688,20.0636161 C482.286086,20.0450148 482.265625,20.0357143 482.243304,20.0357143 C482.220982,20.0357143 482.194941,20.0543153 482.165179,20.0915179 C482.135417,20.1287204 482.107515,20.1659224 482.081473,20.203125 C482.055431,20.2403276 482.038691,20.2589286 482.03125,20.2589286 C482.008928,20.2440475 481.986607,20.2384672 481.964286,20.2421875 C481.941964,20.2459078 481.925223,20.249628 481.914062,20.2533482 C481.902902,20.2570685 481.886161,20.2682291 481.863839,20.2868304 C481.841518,20.3054316 481.822917,20.3184523 481.808036,20.3258929 C481.785714,20.3407739 481.754092,20.3519345 481.71317,20.359375 C481.672247,20.3668155 481.640625,20.3742559 481.618304,20.3816964 C481.729911,20.3444939 481.726191,20.3035717 481.607143,20.2589286 C481.532738,20.2291665 481.473215,20.2180059 481.428571,20.2254464 C481.495536,20.1956844 481.523438,20.151042 481.512277,20.0915179 C481.501116,20.0319938 481.469494,19.9799109 481.417411,19.9352679 L481.473214,19.9352679 C481.465774,19.9055058 481.434152,19.8738841 481.378348,19.8404018 C481.322544,19.8069195 481.257441,19.7752978 481.183036,19.7455357 C481.108631,19.7157737 481.060268,19.6934525 481.037946,19.6785714 C480.978422,19.6413689 480.851935,19.606027 480.658482,19.5725446 C480.465029,19.5390623 480.342262,19.5372022 480.290179,19.5669643 C480.252976,19.6116074 480.236235,19.6506695 480.239955,19.6841518 C480.243676,19.7176341 480.258556,19.7697169 480.284598,19.8404018 C480.31064,19.9110867 480.323661,19.9575892 480.323661,19.9799107 C480.331101,20.0245538 480.31064,20.0729164 480.262277,20.125 C480.213913,20.1770836 480.189732,20.221726 480.189732,20.2589286 C480.189732,20.3110122 480.241815,20.3686753 480.345982,20.4319196 C480.450149,20.495164 480.487351,20.5751483 480.457589,20.671875 C480.435268,20.7313991 480.375745,20.7909223 480.279018,20.8504464 C480.182291,20.9099705 480.122768,20.9546129 480.100446,20.984375 C480.063244,21.0438991 480.057664,21.1127228 480.083705,21.1908482 C480.109747,21.2689736 480.148809,21.3303569 480.200893,21.375 C480.215774,21.389881 480.221354,21.4047618 480.217634,21.4196429 C480.213914,21.4345239 480.200893,21.4512648 480.178571,21.4698661 C480.15625,21.4884674 480.135789,21.5033482 480.117188,21.5145089 C480.098586,21.5256697 480.074405,21.5386904 480.044643,21.5535714 L480.011161,21.5758929 C479.929315,21.6130954 479.853051,21.5907742 479.782366,21.5089286 C479.711681,21.4270829 479.661458,21.3303577 479.631696,21.21875 C479.579613,21.0327372 479.52009,20.9211311 479.453125,20.8839286 C479.281993,20.8244045 479.174107,20.8281247 479.129464,20.8950893 C479.092262,20.7983626 478.939733,20.7016374 478.671875,20.6049107 C478.485862,20.5379461 478.270091,20.5230653 478.024554,20.5602679 C478.069197,20.5528273 478.069197,20.4970243 478.024554,20.3928571 C477.97247,20.2812494 477.901786,20.236607 477.8125,20.2589286 C477.834822,20.2142855 477.849702,20.149182 477.857143,20.0636161 C477.864583,19.9780502 477.868304,19.9278275 477.868304,19.9129464 C477.890625,19.8162198 477.935268,19.7306551 478.002232,19.65625 C478.009673,19.6488095 478.035714,19.6171878 478.080357,19.5613839 C478.125,19.5055801 478.160342,19.4553574 478.186384,19.4107143 C478.212426,19.3660712 478.214286,19.34375 478.191964,19.34375 C478.452382,19.3735121 478.638392,19.3325898 478.75,19.2209821 C478.787203,19.1837796 478.829985,19.1205362 478.878348,19.03125 C478.926712,18.9419638 478.965774,18.8787204 478.995536,18.8415179 C479.0625,18.7968748 479.114583,18.7764137 479.151786,18.7801339 C479.188988,18.7838542 479.242931,18.8043153 479.313616,18.8415179 C479.384301,18.8787204 479.438244,18.8973214 479.475446,18.8973214 C479.579614,18.9047619 479.637277,18.8638397 479.648438,18.7745536 C479.659598,18.6852674 479.631697,18.6108634 479.564732,18.5513393 C479.654018,18.5587798 479.665179,18.4955364 479.598214,18.3616071 C479.568452,18.3095235 479.538691,18.2760417 479.508929,18.2611607 C479.419642,18.2313987 479.319197,18.2499997 479.207589,18.3169643 C479.148065,18.3467263 479.155506,18.3764879 479.229911,18.40625 C479.22247,18.3988095 479.187128,18.4378716 479.123884,18.5234375 C479.06064,18.6090034 478.999256,18.6741069 478.939732,18.71875 C478.880208,18.7633931 478.820685,18.7447921 478.761161,18.6629464 C478.75372,18.6555059 478.733259,18.6052832 478.699777,18.5122768 C478.666294,18.4192704 478.630953,18.3690477 478.59375,18.3616071 C478.534226,18.3616071 478.474703,18.4174102 478.415179,18.5290179 C478.4375,18.4694938 478.396578,18.4136907 478.292411,18.3616071 C478.188244,18.3095235 478.098959,18.2797619 478.024554,18.2723214 C478.165923,18.1830353 478.136162,18.0825898 477.935268,17.9709821 C477.883184,17.9412201 477.80692,17.9226191 477.706473,17.9151786 C477.606026,17.9077381 477.533482,17.9226189 477.488839,17.9598214 C477.451637,18.011905 477.431176,18.0546873 477.427455,18.0881696 C477.423735,18.121652 477.442336,18.1514136 477.483259,18.1774554 C477.524182,18.2034972 477.563244,18.2239583 477.600446,18.2388393 C477.637649,18.2537203 477.680431,18.2686011 477.728795,18.2834821 C477.777158,18.2983632 477.80878,18.3095238 477.823661,18.3169643 C477.927828,18.3913694 477.95759,18.4434522 477.912946,18.4732143 C477.898065,18.4806548 477.866444,18.4936755 477.81808,18.5122768 C477.769717,18.5308781 477.726935,18.547619 477.689732,18.5625 C477.65253,18.577381 477.630208,18.5922618 477.622768,18.6071429 C477.600446,18.6369049 477.600446,18.6889877 477.622768,18.7633929 C477.645089,18.837798 477.637649,18.8898808 477.600446,18.9196429 C477.563244,18.8824403 477.529762,18.8173368 477.5,18.7243304 C477.470238,18.6313239 477.444197,18.5699406 477.421875,18.5401786 C477.473959,18.6071432 477.380954,18.6294644 477.142857,18.6071429 L477.03125,18.5959821 C477.001488,18.5959821 476.941965,18.6034225 476.852679,18.6183036 C476.763392,18.6331846 476.687128,18.6369048 476.623884,18.6294643 C476.56064,18.6220238 476.510417,18.5922622 476.473214,18.5401786 C476.443452,18.4806545 476.443452,18.4062504 476.473214,18.3169643 C476.480655,18.2872022 476.495536,18.2797618 476.517857,18.2946429 C476.488095,18.2723213 476.447173,18.2369794 476.395089,18.1886161 C476.343006,18.1402527 476.305804,18.108631 476.283482,18.09375 C475.941219,18.2053577 475.59152,18.3578859 475.234375,18.5513393 C475.279018,18.5587798 475.32366,18.5550596 475.368304,18.5401786 C475.405506,18.5252975 475.453869,18.5011162 475.513393,18.4676339 C475.572917,18.4341516 475.610119,18.4136905 475.625,18.40625 C475.877977,18.3020828 476.034226,18.2760414 476.09375,18.328125 L476.149554,18.2723214 C476.253721,18.3913696 476.328125,18.4843747 476.372768,18.5513393 C476.320684,18.5215772 476.209078,18.517857 476.037946,18.5401786 C475.889136,18.5848217 475.807292,18.6294641 475.792411,18.6741071 C475.844494,18.7633933 475.863095,18.8303569 475.848214,18.875 C475.818452,18.8526785 475.77567,18.8154765 475.719866,18.7633929 C475.664062,18.7113093 475.610119,18.6703871 475.558036,18.640625 C475.505952,18.6108629 475.450149,18.5922619 475.390625,18.5848214 C475.271577,18.5848214 475.189732,18.5885416 475.145089,18.5959821 C474.058774,19.1912232 473.184527,20.0171078 472.522321,21.0736607 C472.574405,21.1257443 472.619047,21.1555059 472.65625,21.1629464 C472.686012,21.1703869 472.704613,21.2038688 472.712054,21.2633929 C472.719494,21.322917 472.728795,21.3638392 472.739955,21.3861607 C472.751116,21.4084823 472.793898,21.3973217 472.868304,21.3526786 C472.935268,21.4122027 472.946429,21.4828865 472.901786,21.5647321 C472.909226,21.5572916 473.072915,21.6577371 473.392857,21.8660714 C473.534227,21.9925602 473.612351,22.0706844 473.627232,22.1004464 C473.649554,22.1822921 473.612352,22.2492557 473.515625,22.3013393 C473.508184,22.2864583 473.474703,22.2529765 473.415179,22.2008929 C473.355654,22.1488093 473.322173,22.1339285 473.314732,22.15625 C473.292411,22.1934526 473.294271,22.2622763 473.320312,22.3627232 C473.346354,22.4631701 473.385416,22.5096727 473.4375,22.5022321 C473.385416,22.5022321 473.350074,22.5617554 473.331473,22.6808036 C473.312872,22.7998518 473.303571,22.9319189 473.303571,23.0770089 C473.303571,23.2220989 473.299851,23.3095237 473.292411,23.3392857 L473.314732,23.3504464 C473.292411,23.4397326 473.312872,23.5680795 473.376116,23.7354911 C473.43936,23.9029026 473.519345,23.9754465 473.616071,23.953125 C473.519345,23.9754465 473.593749,24.1354152 473.839286,24.4330357 C473.883929,24.4925598 473.91369,24.5260416 473.928571,24.5334821 C473.950893,24.5483632 473.995535,24.5762647 474.0625,24.6171875 C474.129465,24.6581103 474.185268,24.6953123 474.229911,24.7287946 C474.274554,24.762277 474.311756,24.8013391 474.341518,24.8459821 C474.37128,24.8831847 474.408482,24.9668892 474.453125,25.0970982 C474.497768,25.2273072 474.549851,25.3147319 474.609375,25.359375 C474.594494,25.4040181 474.629836,25.4784221 474.715402,25.5825893 C474.800968,25.6867565 474.84003,25.7723211 474.832589,25.8392857 C474.825149,25.8392857 474.815848,25.8430059 474.804688,25.8504464 C474.793527,25.8578869 474.784226,25.8616071 474.776786,25.8616071 C474.799107,25.9136907 474.85677,25.9657735 474.949777,26.0178571 C475.042783,26.0699407 475.100446,26.1183033 475.122768,26.1629464 C475.130208,26.185268 475.137649,26.22247 475.145089,26.2745536 C475.15253,26.3266372 475.16369,26.3675594 475.178571,26.3973214 C475.193452,26.4270835 475.223214,26.4345239 475.267857,26.4196429 C475.282738,26.2708326 475.193453,26.0401801 475,25.7276786 C474.888392,25.5416657 474.825149,25.4337799 474.810268,25.4040179 C474.787946,25.3668153 474.767485,25.3091522 474.748884,25.2310268 C474.730283,25.1529014 474.713542,25.0989585 474.698661,25.0691964 C474.713542,25.0691964 474.735863,25.0747767 474.765625,25.0859375 C474.795387,25.0970983 474.827009,25.110119 474.860491,25.125 C474.893973,25.139881 474.921875,25.1547618 474.944196,25.1696429 C474.966518,25.1845239 474.973958,25.1956845 474.966518,25.203125 C474.944196,25.2552086 474.951637,25.3203121 474.988839,25.3984375 C475.026042,25.4765629 475.070684,25.5453866 475.122768,25.6049107 C475.174851,25.6644348 475.238095,25.7351186 475.3125,25.8169643 C475.386905,25.8988099 475.431548,25.9471725 475.446429,25.9620536 C475.491072,26.0066967 475.543154,26.0792406 475.602679,26.1796875 C475.662203,26.2801344 475.662203,26.3303571 475.602679,26.3303571 C475.669643,26.3303571 475.744047,26.3694193 475.825893,26.4475446 C475.907739,26.52567 475.970982,26.598214 476.015625,26.6651786 C476.052828,26.7247027 476.082589,26.8214279 476.104911,26.9553571 C476.127232,27.0892864 476.145833,27.1785712 476.160714,27.2232143 C476.175595,27.2752979 476.207217,27.3255206 476.25558,27.3738839 C476.303944,27.4222473 476.350446,27.4575892 476.395089,27.4799107 L476.573661,27.5691964 C476.648066,27.606399 476.696428,27.6324404 476.71875,27.6473214 C476.755953,27.6622025 476.824776,27.7012646 476.925223,27.7645089 C477.02567,27.8277533 477.105654,27.8705356 477.165179,27.8928571 C477.239584,27.9226192 477.299107,27.9375 477.34375,27.9375 C477.388393,27.9375 477.442336,27.9281995 477.50558,27.9095982 C477.568825,27.8909969 477.619047,27.8779762 477.65625,27.8705357 C477.767858,27.8556547 477.875744,27.9114577 477.979911,28.0379464 C478.084078,28.1644352 478.162202,28.2425594 478.214286,28.2723214 C478.482144,28.4136912 478.686755,28.4546134 478.828125,28.3950893 C478.813244,28.4025298 478.815104,28.4304313 478.833705,28.4787946 C478.852307,28.527158 478.882068,28.5848211 478.922991,28.6517857 C478.963914,28.7187503 478.997396,28.7726932 479.023438,28.8136161 C479.049479,28.8545389 479.06994,28.8861606 479.084821,28.9084821 C479.122024,28.9531252 479.188988,29.0089282 479.285714,29.0758929 C479.382441,29.1428575 479.449405,29.1986605 479.486607,29.2433036 C479.53125,29.2135415 479.557292,29.1800597 479.564732,29.1428571 C479.542411,29.2023813 479.568452,29.2767853 479.642857,29.3660714 C479.717262,29.4553576 479.784226,29.4925596 479.84375,29.4776786 C479.947917,29.455357 480,29.3363106 480,29.1205357 C479.769344,29.2321434 479.587054,29.1651798 479.453125,28.9196429 C479.453125,28.9122023 479.443824,28.8917412 479.425223,28.8582589 C479.406622,28.8247766 479.391741,28.7931549 479.38058,28.7633929 C479.36942,28.7336308 479.360119,28.7020091 479.352679,28.6685268 C479.345238,28.6350445 479.345238,28.607143 479.352679,28.5848214 C479.360119,28.5624999 479.37872,28.5513393 479.408482,28.5513393 C479.475447,28.5513393 479.512649,28.5383186 479.520089,28.5122768 C479.52753,28.486235 479.520089,28.4397325 479.497768,28.3727679 C479.475446,28.3058032 479.460566,28.2574406 479.453125,28.2276786 C479.445684,28.1681545 479.404762,28.0937504 479.330357,28.0044643 C479.255952,27.9151781 479.21131,27.8593751 479.196429,27.8370536 C479.159226,27.9040182 479.099703,27.9337798 479.017857,27.9263393 C478.936011,27.9188988 478.876488,27.885417 478.839286,27.8258929 C478.839286,27.8333334 478.833705,27.8537945 478.822545,27.8872768 C478.811384,27.9207591 478.805804,27.9449404 478.805804,27.9598214 C478.709077,27.9598214 478.653274,27.9561012 478.638393,27.9486607 C478.645833,27.9263392 478.655134,27.8612357 478.666295,27.7533482 C478.677455,27.6454608 478.690476,27.5617563 478.705357,27.5022321 C478.712798,27.4724701 478.733259,27.4278277 478.766741,27.3683036 C478.800223,27.3087795 478.828125,27.2548366 478.850446,27.2064732 C478.872768,27.1581099 478.887649,27.1116074 478.895089,27.0669643 C478.90253,27.0223212 478.885789,26.9869793 478.844866,26.9609375 C478.803943,26.9348957 478.73884,26.9255952 478.649554,26.9330357 C478.508184,26.9404762 478.411459,27.0148802 478.359375,27.15625 C478.351934,27.1785715 478.340774,27.2176336 478.325893,27.2734375 C478.311012,27.3292414 478.292411,27.3720237 478.270089,27.4017857 C478.247768,27.4315478 478.214286,27.4575892 478.169643,27.4799107 C478.117559,27.5022323 478.028274,27.5096727 477.901786,27.5022321 C477.775297,27.4947916 477.686012,27.4761906 477.633929,27.4464286 C477.537202,27.3869045 477.453497,27.2790186 477.382812,27.1227679 C477.312128,26.9665171 477.276786,26.8288696 477.276786,26.7098214 C477.276786,26.6354163 477.286086,26.536831 477.304688,26.4140625 C477.323289,26.291294 477.334449,26.198289 477.33817,26.1350446 C477.34189,26.0718003 477.321429,25.9806554 477.276786,25.8616071 C477.299107,25.8467261 477.332589,25.8113842 477.377232,25.7555804 C477.421875,25.6997765 477.459077,25.6607144 477.488839,25.6383929 C477.50372,25.6309523 477.520461,25.625372 477.539062,25.6216518 C477.557664,25.6179315 477.574405,25.6179315 477.589286,25.6216518 C477.604167,25.625372 477.619048,25.6197917 477.633929,25.6049107 C477.64881,25.5900297 477.65997,25.5677085 477.667411,25.5379464 C477.65997,25.5305059 477.645089,25.5193453 477.622768,25.5044643 C477.600446,25.4821427 477.585566,25.4709821 477.578125,25.4709821 C477.630209,25.4933037 477.736234,25.4877234 477.896205,25.4542411 C478.056176,25.4207588 478.158482,25.4263391 478.203125,25.4709821 C478.314733,25.5528278 478.396577,25.5453874 478.448661,25.4486607 C478.448661,25.4412202 478.43936,25.4058783 478.420759,25.3426339 C478.402158,25.2793896 478.400298,25.2291669 478.415179,25.1919643 C478.452381,25.3928581 478.560267,25.42634 478.738839,25.2924107 C478.761161,25.3147323 478.818824,25.3333333 478.91183,25.3482143 C479.004837,25.3630953 479.06994,25.3816963 479.107143,25.4040179 C479.129464,25.4188989 479.155506,25.43936 479.185268,25.4654018 C479.21503,25.4914436 479.235491,25.5081845 479.246652,25.515625 C479.257813,25.5230655 479.276414,25.5212054 479.302455,25.5100446 C479.328497,25.4988839 479.360119,25.4747026 479.397321,25.4375 C479.471727,25.5416672 479.516369,25.630952 479.53125,25.7053571 C479.613096,26.0029777 479.683779,26.1666665 479.743304,26.1964286 C479.795387,26.2187501 479.836309,26.2261905 479.866071,26.21875 C479.895833,26.2113095 479.912574,26.1759676 479.916295,26.1127232 C479.920015,26.0494789 479.920015,25.997396 479.916295,25.9564732 C479.912574,25.9155504 479.906994,25.8690479 479.899554,25.8169643 L479.888393,25.7276786 L479.888393,25.5267857 L479.877232,25.4375 C479.765624,25.4151785 479.696801,25.370536 479.670759,25.3035714 C479.644717,25.2366068 479.650297,25.1677831 479.6875,25.0970982 C479.724703,25.0264133 479.780506,24.9575896 479.854911,24.890625 C479.862351,24.8831845 479.892113,24.8701638 479.944196,24.8515625 C479.99628,24.8329612 480.053943,24.8087799 480.117188,24.7790179 C480.180432,24.7492558 480.226934,24.7194942 480.256696,24.6897321 C480.412947,24.5483624 480.46875,24.4181554 480.424107,24.2991071 C480.476191,24.2991071 480.517113,24.2656253 480.546875,24.1986607 C480.539434,24.1986607 480.520833,24.1875001 480.491071,24.1651786 C480.461309,24.142857 480.433408,24.124256 480.407366,24.109375 C480.381324,24.094494 480.364583,24.0870536 480.357143,24.0870536 C480.424107,24.049851 480.431548,23.9903278 480.379464,23.9084821 C480.416667,23.8861606 480.444568,23.8452384 480.46317,23.7857143 C480.481771,23.7261902 480.509672,23.6889882 480.546875,23.6741071 C480.61384,23.7633933 480.691964,23.7708337 480.78125,23.6964286 C480.840774,23.6369045 480.844494,23.5773813 480.792411,23.5178571 C480.829613,23.4657735 480.905877,23.4267114 481.021205,23.4006696 C481.136533,23.3746278 481.205357,23.3392859 481.227679,23.2946429 C481.279762,23.3095239 481.309524,23.3020835 481.316964,23.2723214 C481.324405,23.2425594 481.328125,23.197917 481.328125,23.1383929 C481.328125,23.0788688 481.339286,23.0342263 481.361607,23.0044643 C481.391369,22.9672617 481.447172,22.9337799 481.529018,22.9040179 C481.610864,22.8742558 481.659226,22.8556548 481.674107,22.8482143 L481.863839,22.7254464 C481.886161,22.6956844 481.886161,22.6808036 481.863839,22.6808036 C481.997769,22.6956846 482.113095,22.6547624 482.209821,22.5580357 C482.284227,22.4761901 482.261905,22.401786 482.142857,22.3348214 C482.165179,22.2901783 482.154018,22.2548364 482.109375,22.2287946 C482.064732,22.2027528 482.008929,22.1822917 481.941964,22.1674107 C481.964286,22.1599702 482.007068,22.1581101 482.070312,22.1618304 C482.133557,22.1655506 482.172619,22.1599703 482.1875,22.1450893 C482.299108,22.0706842 482.273066,22.0111609 482.109375,21.9665179 C481.982886,21.9293153 481.822918,21.9739577 481.629464,22.1004464 Z M479.810268,31.8883929 C481.343014,31.6205344 482.648804,30.9174164 483.727679,29.7790179 C483.705357,29.7566963 483.658855,29.7399554 483.58817,29.7287946 C483.517485,29.7176339 483.470982,29.7046132 483.448661,29.6897321 C483.314731,29.6376485 483.225447,29.6078869 483.180804,29.6004464 C483.188244,29.5483628 483.178944,29.5000002 483.152902,29.4553571 C483.12686,29.4107141 483.097098,29.3772323 483.063616,29.3549107 C483.030134,29.3325892 482.983631,29.3028276 482.924107,29.265625 C482.864583,29.2284224 482.823661,29.202381 482.801339,29.1875 C482.786458,29.172619 482.760417,29.1502978 482.723214,29.1205357 C482.686012,29.0907737 482.65997,29.0703126 482.645089,29.0591518 C482.630208,29.047991 482.602307,29.0312501 482.561384,29.0089286 C482.520461,28.986607 482.488839,28.9791666 482.466518,28.9866071 C482.444196,28.9940477 482.406994,28.9977679 482.354911,28.9977679 L482.321429,29.0089286 C482.299107,29.0163691 482.278646,29.0256696 482.260045,29.0368304 C482.241443,29.0479911 482.220982,29.0591517 482.198661,29.0703125 C482.176339,29.0814733 482.161458,29.0926339 482.154018,29.1037946 C482.146577,29.1149554 482.146577,29.1242559 482.154018,29.1316964 C481.997767,29.0052077 481.86384,28.9233633 481.752232,28.8861607 C481.71503,28.8787202 481.674107,28.8582591 481.629464,28.8247768 C481.584821,28.7912945 481.545759,28.7652531 481.512277,28.7466518 C481.478794,28.7280505 481.441592,28.7224702 481.40067,28.7299107 C481.359747,28.7373512 481.316965,28.7633926 481.272321,28.8080357 C481.235119,28.8452383 481.212798,28.9010413 481.205357,28.9754464 C481.197917,29.0498516 481.190476,29.0982142 481.183036,29.1205357 C481.130952,29.0833331 481.130952,29.0182296 481.183036,28.9252232 C481.235119,28.8322168 481.24256,28.7633931 481.205357,28.71875 C481.183036,28.6741069 481.143973,28.657366 481.08817,28.6685268 C481.032366,28.6796876 480.987723,28.6964285 480.954241,28.71875 C480.920759,28.7410715 480.877976,28.7726932 480.825893,28.8136161 C480.773809,28.8545389 480.740327,28.8787202 480.725446,28.8861607 C480.710565,28.8936012 480.678944,28.9140623 480.63058,28.9475446 C480.582217,28.981027 480.550595,29.0089285 480.535714,29.03125 C480.513393,29.0610121 480.491072,29.1056545 480.46875,29.1651786 C480.446428,29.2247027 480.427827,29.2656249 480.412946,29.2879464 C480.398065,29.2581844 480.355283,29.2340031 480.284598,29.2154018 C480.213913,29.1968005 480.178571,29.1763394 480.178571,29.1540179 C480.193452,29.228423 480.208333,29.35863 480.223214,29.5446429 C480.238095,29.7306557 480.256696,29.8720233 480.279018,29.96875 C480.331101,30.1994059 480.286459,30.3779756 480.145089,30.5044643 C479.944195,30.6904771 479.83631,30.8392852 479.821429,30.9508929 C479.791667,31.1145842 479.836309,31.2113094 479.955357,31.2410714 C479.955357,31.293155 479.925596,31.3694191 479.866071,31.4698661 C479.806547,31.570313 479.780506,31.6502973 479.787946,31.7098214 C479.787946,31.7544645 479.795387,31.8139877 479.810268,31.8883929 Z" id="fa-globe"></path>
            </g>
        </g>
    </g>
</svg>