<?xml version="1.0" encoding="UTF-8"?>
<svg width="31px" height="29px" viewBox="0 0 31 29" version="1.1" xmlns="http://www.w3.org/2000/svg" xmlns:xlink="http://www.w3.org/1999/xlink">
    <!-- Generator: Sketch 46.2 (44496) - http://www.bohemiancoding.com/sketch -->
    <title>Page 1</title>
    <desc>Created with Sketch.</desc>
    <defs>
        <polygon id="path-1" points="0.0002 0.892 31 0.892 31 4.4336 0.0002 4.4336 0.0002 0.892"></polygon>
        <polygon id="path-3" points="0 4.1628 0 0.6208 20.6668 0.6208 20.6668 4.1628"></polygon>
    </defs>
    <g id="Welcome" stroke="none" stroke-width="1" fill="none" fill-rule="evenodd">
        <g id="Tablet" transform="translate(-290.000000, -172.000000)">
            <g id="Page-1" transform="translate(290.000000, 171.000000)">
                <g id="Group-9" transform="translate(1.000000, 22.108400)" fill="#0072BB">
                    <polygon id="Fill-1" points="0.666 6.8916 0.666 0.7716 2.781 0.7716 3.861 5.2356 4.941 0.7716 7.056 0.7716 7.056 6.8916 5.814 6.8916 5.814 2.1576 5.679 2.1576 4.482 6.6216 3.24 6.6216 2.043 2.1576 1.908 2.1576 1.908 6.8916"></polygon>
                    <polygon id="Fill-3" points="9.3418 6.8916 9.3418 0.7716 13.3018 0.7716 13.3018 1.8516 10.5838 1.8516 10.5838 3.2826 12.7618 3.2826 12.7618 4.3446 10.5838 4.3446 10.5838 5.8116 13.3018 5.8116 13.3018 6.8916"></polygon>
                    <polygon id="Fill-5" points="15.2813 6.8916 15.2813 0.7716 17.3793 0.7716 18.8543 5.8116 18.9453 5.8116 18.9453 0.7716 20.1863 0.7716 20.1863 6.8916 18.1433 6.8916 16.6133 1.8516 16.5233 1.8516 16.5233 6.8916"></polygon>
                    <path d="M23.6787,4.8486 C23.6787,5.5626 24.0417,5.9196 24.7677,5.9196 C25.4937,5.9196 25.8577,5.5626 25.8577,4.8486 L25.8577,0.7716 L27.0987,0.7716 L27.0987,4.8216 C27.0987,5.5716 26.9057,6.1216 26.5187,6.4726 C26.1317,6.8246 25.5477,6.9996 24.7677,6.9996 C23.9887,6.9996 23.4047,6.8246 23.0177,6.4726 C22.6307,6.1216 22.4367,5.5716 22.4367,4.8216 L22.4367,0.7716 L23.6787,0.7716 L23.6787,4.8486 Z" id="Fill-7"></path>
                </g>
                <g id="Group-12" transform="translate(0.000000, 0.108400)">
                    <mask id="mask-2" fill="white">
                        <use xlink:href="#path-1"></use>
                    </mask>
                    <g id="Clip-11"></g>
                    <path d="M29.2292,0.8916 L1.7712,0.8916 C0.7932,0.8916 0.0002,1.6846 0.0002,2.6626 C0.0002,3.6406 0.7932,4.4336 1.7712,4.4336 L29.2292,4.4336 C30.2072,4.4336 31.0002,3.6406 31.0002,2.6626 C31.0002,1.6846 30.2072,0.8916 29.2292,0.8916" id="Fill-10" fill="#0072BB" mask="url(#mask-2)"></path>
                </g>
                <g id="Group-15" transform="translate(0.000000, 7.108400)">
                    <mask id="mask-4" fill="white">
                        <use xlink:href="#path-3"></use>
                    </mask>
                    <g id="Clip-14"></g>
                    <path d="M18.8958,0.6208 L1.7708,0.6208 C0.7928,0.6208 -0.0002,1.4138 -0.0002,2.3918 C-0.0002,3.3698 0.7928,4.1628 1.7708,4.1628 L18.8958,4.1628 C19.8738,4.1628 20.6668,3.3698 20.6668,2.3918 C20.6668,1.4138 19.8738,0.6208 18.8958,0.6208" id="Fill-13" fill="#0072BB" mask="url(#mask-4)"></path>
                </g>
                <path d="M25.04,14.4583 L1.771,14.4583 C0.793,14.4583 0,15.2513 0,16.2293 L0,16.2293 C0,17.2073 0.793,18.0003 1.771,18.0003 L25.04,18.0003 C26.018,18.0003 26.811,17.2073 26.811,16.2293 L26.811,16.2293 C26.811,15.2513 26.018,14.4583 25.04,14.4583" id="Fill-16" fill="#0072BB"></path>
            </g>
        </g>
    </g>
</svg>