<?xml version="1.0" encoding="UTF-8"?>
<svg width="56px" height="54px" viewBox="0 0 56 54" version="1.1" xmlns="http://www.w3.org/2000/svg" xmlns:xlink="http://www.w3.org/1999/xlink">
    <!-- Generator: Sketch 46.2 (44496) - http://www.bohemiancoding.com/sketch -->
    <title>Page 1</title>
    <desc>Created with Sketch.</desc>
    <defs></defs>
    <g id="Welcome" stroke="none" stroke-width="1" fill="none" fill-rule="evenodd">
        <g id="Desktop-HD-Copy-79" transform="translate(-583.000000, -606.000000)">
            <g id="Page-1" transform="translate(584.000000, 607.000000)">
                <path d="M33,43 L1.711,43 C0.767,43 0,42.253 0,41.331 L0,10.669 C0,9.747 0.767,9 1.711,9 L6,9" id="Stroke-1" stroke="#C10000" stroke-width="2" stroke-linecap="round"></path>
                <path d="M41,9 L44.421,9 C45.365,9 46,9.747 46,10.669 L46,32" id="Stroke-3" stroke="#C10000" stroke-width="2" stroke-linecap="round"></path>
                <path d="M16,9 L31,9" id="Stroke-5" stroke="#C10000" stroke-width="2" stroke-linecap="round"></path>
                <path d="M50,43.4441448 C50,43.0760694 49.7011463,42.7774422 49.3327918,42.7774422 L46.4415564,42.7774422 L46.4415564,39.8883975 C46.4415564,39.5203221 46.1427027,39.2216949 45.7743482,39.2216949 L44.4399318,39.2216949 C44.0715773,39.2216949 43.7727236,39.5203221 43.7727236,39.8883975 L43.7727236,42.7774422 L40.8814882,42.7774422 C40.5131337,42.7774422 40.21428,43.0760694 40.21428,43.4441448 L40.21428,44.7775501 C40.21428,45.1456255 40.5131337,45.4442527 40.8814882,45.4442527 L43.7727236,45.4442527 L43.7727236,48.3332974 C43.7727236,48.7013728 44.0715773,49 44.4399318,49 L45.7743482,49 C46.1427027,49 46.4415564,48.7013728 46.4415564,48.3332974 L46.4415564,45.4442527 L49.3327918,45.4442527 C49.7011463,45.4442527 50,45.1456255 50,44.7775501 L50,43.4441448 Z" id="fa-plus" fill="#C10000"></path>
                <path d="M13.5,10.8311 C13.5,11.7531 12.753,12.5001 11.831,12.5001 L10.169,12.5001 C9.247,12.5001 8.5,11.7531 8.5,10.8311 L8.5,2.1691 C8.5,1.2471 9.247,0.5001 10.169,0.5001 L11.831,0.5001 C12.753,0.5001 13.5,1.2471 13.5,2.1691 L13.5,10.8311 Z" id="Stroke-23" stroke="#C10000" stroke-width="2"></path>
                <path d="M38.5,10.8311 C38.5,11.7531 37.753,12.5001 36.831,12.5001 L35.169,12.5001 C34.247,12.5001 33.5,11.7531 33.5,10.8311 L33.5,2.1691 C33.5,1.2471 34.247,0.5001 35.169,0.5001 L36.831,0.5001 C37.753,0.5001 38.5,1.2471 38.5,2.1691 L38.5,10.8311 Z" id="Stroke-25" stroke="#C10000" stroke-width="2"></path>
                <path d="M53.125,43.8125 C53.125,48.2655 49.516,51.8755 45.062,51.8755 C40.609,51.8755 37,48.2655 37,43.8125 C37,39.3595 40.609,35.7495 45.062,35.7495 C49.516,35.7495 53.125,39.3595 53.125,43.8125 Z" id="Stroke-27" stroke="#C10000" stroke-width="2"></path>
                <g id="Group-14" transform="translate(7.000000, 15.000000)" fill="#C10000">
                    <rect id="Rectangle" x="11" y="0" width="9" height="6" rx="2"></rect>
                    <rect id="Rectangle-Copy" x="11" y="8" width="9" height="6" rx="2"></rect>
                    <rect id="Rectangle-Copy-6" x="0" y="8" width="9" height="6" rx="2"></rect>
                    <rect id="Rectangle" x="22" y="0" width="9" height="6" rx="2"></rect>
                    <rect id="Rectangle-Copy-2" x="22" y="8" width="9" height="6" rx="2"></rect>
                    <rect id="Rectangle-Copy-5" x="11" y="16" width="9" height="6" rx="2"></rect>
                    <rect id="Rectangle-Copy-7" x="0" y="16" width="9" height="6" rx="2"></rect>
                    <rect id="Rectangle-Copy-3" x="22" y="16" width="9" height="6" rx="2"></rect>
                </g>
            </g>
        </g>
    </g>
</svg>