<?xml version="1.0" encoding="UTF-8"?>
<svg width="38px" height="31px" viewBox="0 0 38 31" version="1.1" xmlns="http://www.w3.org/2000/svg" xmlns:xlink="http://www.w3.org/1999/xlink">
    <!-- Generator: Sketch 46.2 (44496) - http://www.bohemiancoding.com/sketch -->
    <title>Group 2</title>
    <desc>Created with Sketch.</desc>
    <defs></defs>
    <g id="Welcome" stroke="none" stroke-width="1" fill="none" fill-rule="evenodd">
        <g id="Desktop-HD-Copy-79" transform="translate(-58.000000, -2419.000000)" stroke="#3197FF" fill="#3197FF">
            <g id="Group-2" transform="translate(59.000000, 2419.000000)">
                <g id="Page-1">
                    <path d="M12.2656266,5.09273269 L12.2656266,5.09273269 C12.0196734,5.09273269 11.8227047,4.89438654 11.8227047,4.49613654 C11.8227047,4.14877115 12.0196734,3.950425 12.2656266,3.950425 L35.0866734,3.950425 C35.3326266,3.950425 35.5295953,4.14877115 35.5295953,4.49613654 C35.5295953,4.89438654 35.3326266,5.09273269 35.0866734,5.09273269 L12.2656266,5.09273269 Z" id="Fill-1"></path>
                    <g id="Group-15" transform="translate(0.441658, 0.441658)">
                        <path d="M6.02650192,1.36791465 L6.02650192,1.36791465 L1.38665777,1.36791465 L1.38665777,6.16336075 L6.02650192,6.16336075 L6.02650192,1.36791465 Z M0.722832242,0.0950963497 L6.68906662,0.0950963497 C6.98977391,0.0950963497 7.41152062,0.397906489 7.41152062,0.761659549 L7.41152062,6.70930775 C7.41152062,7.13336891 6.98977391,7.43681387 6.68906662,7.43681387 L0.722832242,7.43681387 C0.421494538,7.43681387 -0.000252165442,7.13336891 -0.000252165442,6.70930775 L-0.000252165442,0.761659549 C-0.000252165442,0.397906489 0.421494538,0.0950963497 0.722832242,0.0950963497 L0.722832242,0.0950963497 Z" id="Fill-13"></path>
                    </g>
                </g>
                <g id="Page-1-Copy-5" transform="translate(0.000000, 11.000000)">
                    <path d="M12.2656266,5.09273269 L12.2656266,5.09273269 C12.0196734,5.09273269 11.8227047,4.89438654 11.8227047,4.49613654 C11.8227047,4.14877115 12.0196734,3.950425 12.2656266,3.950425 L35.0866734,3.950425 C35.3326266,3.950425 35.5295953,4.14877115 35.5295953,4.49613654 C35.5295953,4.89438654 35.3326266,5.09273269 35.0866734,5.09273269 L12.2656266,5.09273269 Z" id="Fill-1"></path>
                    <g id="Group-15" transform="translate(0.441658, 0.441658)">
                        <path d="M6.02650192,1.36791465 L6.02650192,1.36791465 L1.38665777,1.36791465 L1.38665777,6.16336075 L6.02650192,6.16336075 L6.02650192,1.36791465 Z M0.722832242,0.0950963497 L6.68906662,0.0950963497 C6.98977391,0.0950963497 7.41152062,0.397906489 7.41152062,0.761659549 L7.41152062,6.70930775 C7.41152062,7.13336891 6.98977391,7.43681387 6.68906662,7.43681387 L0.722832242,7.43681387 C0.421494538,7.43681387 -0.000252165442,7.13336891 -0.000252165442,6.70930775 L-0.000252165442,0.761659549 C-0.000252165442,0.397906489 0.421494538,0.0950963497 0.722832242,0.0950963497 L0.722832242,0.0950963497 Z" id="Fill-13"></path>
                    </g>
                </g>
                <g id="Page-1-Copy-6" transform="translate(0.000000, 22.000000)">
                    <path d="M12.2656266,5.09273269 L12.2656266,5.09273269 C12.0196734,5.09273269 11.8227047,4.89438654 11.8227047,4.49613654 C11.8227047,4.14877115 12.0196734,3.950425 12.2656266,3.950425 L35.0866734,3.950425 C35.3326266,3.950425 35.5295953,4.14877115 35.5295953,4.49613654 C35.5295953,4.89438654 35.3326266,5.09273269 35.0866734,5.09273269 L12.2656266,5.09273269 Z" id="Fill-1"></path>
                    <g id="Group-15" transform="translate(0.441658, 0.441658)">
                        <path d="M6.02650192,1.36791465 L6.02650192,1.36791465 L1.38665777,1.36791465 L1.38665777,6.16336075 L6.02650192,6.16336075 L6.02650192,1.36791465 Z M0.722832242,0.0950963497 L6.68906662,0.0950963497 C6.98977391,0.0950963497 7.41152062,0.397906489 7.41152062,0.761659549 L7.41152062,6.70930775 C7.41152062,7.13336891 6.98977391,7.43681387 6.68906662,7.43681387 L0.722832242,7.43681387 C0.421494538,7.43681387 -0.000252165442,7.13336891 -0.000252165442,6.70930775 L-0.000252165442,0.761659549 C-0.000252165442,0.397906489 0.421494538,0.0950963497 0.722832242,0.0950963497 L0.722832242,0.0950963497 Z" id="Fill-13"></path>
                    </g>
                </g>
            </g>
        </g>
    </g>
</svg>