<?xml version="1.0" encoding="UTF-8"?>
<svg width="34px" height="35px" viewBox="0 0 34 35" version="1.1" xmlns="http://www.w3.org/2000/svg" xmlns:xlink="http://www.w3.org/1999/xlink">
    <!-- Generator: Sketch 46.2 (44496) - http://www.bohemiancoding.com/sketch -->
    <title>Fill 1</title>
    <desc>Created with Sketch.</desc>
    <defs></defs>
    <g id="Welcome" stroke="none" stroke-width="1" fill="none" fill-rule="evenodd">
        <g id="Hover-&amp;-Focus-Effect" transform="translate(-91.000000, -954.000000)" fill="#FFFFFF">
            <g id="Group-12" transform="translate(61.000000, 944.000000)">
                <g id="Page-1" transform="translate(30.000000, 10.000000)">
                    <path d="M22.8768021,5.14083418 C24.9179414,7.25934893 26.9498241,9.36828586 28.9834157,11.4790031 C29.0151016,11.4516582 29.0340775,11.4375585 29.0503832,11.4208596 C30.0156272,10.431531 30.9838974,9.44519329 31.9441927,8.45105799 C32.3851602,7.99452696 32.3666827,7.25279756 31.919378,6.79395219 C30.4245173,5.26053917 28.9187979,3.73745168 27.440777,2.18798067 C26.9836461,1.70880468 26.1383455,1.782294 25.7500691,2.1895473 C24.9805654,2.99668362 24.1926555,3.78619532 23.4130052,4.5836826 C23.2352084,4.76555443 23.0601885,4.95013225 22.8768021,5.14083418 L22.8768021,5.14083418 Z M22.946155,12.780056 C18.2793969,17.5672228 13.6183351,22.3486216 8.94969005,27.1377823 C9.74130262,27.9755748 10.5207037,28.8004069 11.3025257,29.6278383 C15.9740188,24.8102289 20.6317696,20.0068616 25.2973529,15.1953408 C24.5084817,14.3849644 23.731288,13.586587 22.946155,12.780056 L22.946155,12.780056 Z M21.6890806,11.5661648 C20.9023812,10.7347457 20.1257927,9.91400814 19.3345005,9.07771109 C14.6630785,13.8701831 10.0031916,18.6507986 5.33896126,23.4358291 C6.13036021,24.2719837 6.90751832,25.0930773 7.69343455,25.9234283 C12.3677047,21.1283927 17.0247435,16.3510173 21.6890806,11.5661648 L21.6890806,11.5661648 Z M34,8.01119023 C33.928689,8.24554425 33.8899183,8.4969176 33.7784482,8.7102645 C33.6157822,9.02152594 33.4468147,9.35212106 33.2013026,9.594059 C29.8881005,12.8593133 26.7268126,16.272116 23.4713927,19.5933418 C19.7799183,23.3594201 16.0993382,27.1362513 12.4343874,30.9281078 C11.8911707,31.4901373 11.2956901,31.8604323 10.5500754,32.0982045 C7.70892147,33.0042879 4.88382408,33.960824 2.05324398,34.9001628 C1.98268063,34.923591 1.91849005,34.9662818 1.8513089,35 L1.2104712,35 C1.18604817,34.9878586 1.1628,34.9720498 1.13713089,34.9641455 C0.612106806,34.8026043 0.203216754,34.5172991 0.0530471204,33.9534893 C0.0382722513,33.8980163 0.0178010471,33.8440743 0,33.7894201 C0,33.5639318 0,33.3384435 0,33.1129196 C0.0457486911,33.0407121 0.109405236,32.974237 0.134718325,32.8954781 C0.970833508,30.2950458 1.80264084,27.6932604 2.6366911,25.0921872 C2.86091309,24.3929349 3.08865969,23.694822 3.32021571,22.9980264 C3.33997487,22.9385656 3.39676021,22.8886114 3.44361257,22.8414344 C3.57288377,22.7111902 3.7094178,22.5880315 3.83712251,22.4563276 C6.71078115,19.4928637 9.58330052,16.5283316 12.4567812,13.5646897 C14.3187707,11.6442472 16.1940754,9.73655137 18.0401864,7.8009766 C19.2145927,6.56967447 20.3346702,5.28670905 21.5010304,4.04753815 C22.4805508,3.00686673 23.5024377,2.00607325 24.4843791,0.967644964 C24.9580649,0.46671414 25.502955,0.134872838 26.1832042,0.0263123093 C26.1910366,0.0250661241 26.1965194,0.00911495422 26.2031414,0 L27.0219895,0 C27.0306764,0.00779755849 27.0385089,0.0210427263 27.0482283,0.0226449644 C27.7140942,0.13145473 28.2319623,0.49249237 28.6915853,0.965651068 C30.1911455,2.50938962 31.6956901,4.04821465 33.1984545,5.58881994 C33.4534366,5.85023398 33.6589675,6.14614954 33.7854974,6.48877925 C33.870266,6.71836216 33.929401,6.95745168 34,7.19226857 L34,8.01119023 Z" id="Fill-1"></path>
                </g>
            </g>
        </g>
    </g>
</svg>