<?xml version="1.0" encoding="UTF-8"?>
<svg width="28px" height="29px" viewBox="0 0 28 29" version="1.1" xmlns="http://www.w3.org/2000/svg" xmlns:xlink="http://www.w3.org/1999/xlink">
    <!-- Generator: Sketch 46.2 (44496) - http://www.bohemiancoding.com/sketch -->
    <title>fa-search</title>
    <desc>Created with Sketch.</desc>
    <defs></defs>
    <g id="Welcome" stroke="none" stroke-width="1" fill="none" fill-rule="evenodd">
        <g id="Desktop-HD-Copy-79" transform="translate(-896.000000, -798.000000)" fill="#B2B2B2">
            <g id="Group-2" transform="translate(525.000000, 422.000000)">
                <path d="M390.285714,388.214286 C390.285714,386.149543 389.551905,384.383378 388.084263,382.915737 C386.616622,381.448095 384.850457,380.714286 382.785714,380.714286 C380.720972,380.714286 378.954806,381.448095 377.487165,382.915737 C376.019524,384.383378 375.285714,386.149543 375.285714,388.214286 C375.285714,390.279028 376.019524,392.045194 377.487165,393.512835 C378.954806,394.980476 380.720972,395.714286 382.785714,395.714286 C384.850457,395.714286 386.616622,394.980476 388.084263,393.512835 C389.551905,392.045194 390.285714,390.279028 390.285714,388.214286 Z M398.857143,402.142857 C398.857143,402.723217 398.645091,403.225444 398.220982,403.649554 C397.796873,404.073663 397.294646,404.285714 396.714286,404.285714 C396.111604,404.285714 395.609377,404.073663 395.207589,403.649554 L389.465402,397.924107 C387.467624,399.308043 385.241084,400 382.785714,400 C381.189724,400 379.663512,399.690293 378.207031,399.070871 C376.750551,398.451448 375.494983,397.614403 374.44029,396.55971 C373.385597,395.505017 372.548552,394.249449 371.929129,392.792969 C371.309707,391.336488 371,389.810276 371,388.214286 C371,386.618296 371.309707,385.092083 371.929129,383.635603 C372.548552,382.179122 373.385597,380.923554 374.44029,379.868862 C375.494983,378.814169 376.750551,377.977124 378.207031,377.357701 C379.663512,376.738278 381.189724,376.428571 382.785714,376.428571 C384.381704,376.428571 385.907917,376.738278 387.364397,377.357701 C388.820878,377.977124 390.076446,378.814169 391.131138,379.868862 C392.185831,380.923554 393.022876,382.179122 393.642299,383.635603 C394.261722,385.092083 394.571429,386.618296 394.571429,388.214286 C394.571429,390.669655 393.879471,392.896195 392.495536,394.893973 L398.237723,400.636161 C398.650672,401.049109 398.857143,401.551336 398.857143,402.142857 Z" id="fa-search"></path>
            </g>
        </g>
    </g>
</svg>