<?xml version="1.0" encoding="UTF-8"?>
<svg width="19px" height="19px" viewBox="0 0 19 19" version="1.1" xmlns="http://www.w3.org/2000/svg" xmlns:xlink="http://www.w3.org/1999/xlink">
    <!-- Generator: Sketch 46.2 (44496) - http://www.bohemiancoding.com/sketch -->
    <title>fa-search</title>
    <desc>Created with Sketch.</desc>
    <defs></defs>
    <g id="Symbols" stroke="none" stroke-width="1" fill="none" fill-rule="evenodd">
        <g id="InternationalNav" transform="translate(-437.000000, -10.000000)" fill="#0072BB">
            <g id="Group-16" transform="translate(0.000000, -6.000000)">
                <path d="M449.857143,24.1428571 C449.857143,22.7663622 449.367936,21.5889186 448.389509,20.6104911 C447.411081,19.6320636 446.233638,19.1428571 444.857143,19.1428571 C443.480648,19.1428571 442.303204,19.6320636 441.324777,20.6104911 C440.346349,21.5889186 439.857143,22.7663622 439.857143,24.1428571 C439.857143,25.5193521 440.346349,26.6967957 441.324777,27.6752232 C442.303204,28.6536507 443.480648,29.1428571 444.857143,29.1428571 C446.233638,29.1428571 447.411081,28.6536507 448.389509,27.6752232 C449.367936,26.6967957 449.857143,25.5193521 449.857143,24.1428571 Z M455.571429,33.4285714 C455.571429,33.8154781 455.430061,34.1502962 455.147321,34.4330357 C454.864582,34.7157752 454.529764,34.8571429 454.142857,34.8571429 C453.741069,34.8571429 453.406251,34.7157752 453.138393,34.4330357 L449.310268,30.6160714 C447.978416,31.5386951 446.494056,32 444.857143,32 C443.793149,32 442.775674,31.7935289 441.804688,31.3805804 C440.833701,30.9676319 439.996655,30.4096017 439.293527,29.7064732 C438.590398,29.0033447 438.032368,28.1662995 437.61942,27.1953125 C437.206471,26.2243255 437,25.2068506 437,24.1428571 C437,23.0788637 437.206471,22.0613888 437.61942,21.0904018 C438.032368,20.1194148 438.590398,19.2823696 439.293527,18.5792411 C439.996655,17.8761126 440.833701,17.3180824 441.804688,16.9051339 C442.775674,16.4921854 443.793149,16.2857143 444.857143,16.2857143 C445.921136,16.2857143 446.938611,16.4921854 447.909598,16.9051339 C448.880585,17.3180824 449.71763,17.8761126 450.420759,18.5792411 C451.123887,19.2823696 451.681918,20.1194148 452.094866,21.0904018 C452.507815,22.0613888 452.714286,23.0788637 452.714286,24.1428571 C452.714286,25.7797701 452.252981,27.2641302 451.330357,28.5959821 L455.158482,32.4241071 C455.433781,32.6994061 455.571429,33.0342242 455.571429,33.4285714 Z" id="fa-search"></path>
            </g>
        </g>
    </g>
</svg>