<?xml version="1.0" encoding="UTF-8"?>
<svg width="37px" height="21px" viewBox="0 0 37 21" version="1.1" xmlns="http://www.w3.org/2000/svg" xmlns:xlink="http://www.w3.org/1999/xlink">
    <!-- Generator: Sketch 46.2 (44496) - http://www.bohemiancoding.com/sketch -->
    <title>fa-caret-down copy 10</title>
    <desc>Created with Sketch.</desc>
    <defs></defs>
    <g id="Welcome" stroke="none" stroke-width="1" fill="none" fill-rule="evenodd">
        <g id="Desktop-HD-Copy-79" transform="translate(-469.000000, -2128.000000)" fill="#FFFFFF">
            <path d="M505.571429,2130.28571 C505.571429,2130.90477 505.34524,2131.44047 504.892857,2131.89286 L488.892857,2147.89286 C488.440474,2148.34524 487.904765,2148.57143 487.285714,2148.57143 C486.666664,2148.57143 486.130955,2148.34524 485.678571,2147.89286 L469.678571,2131.89286 C469.226188,2131.44047 469,2130.90477 469,2130.28571 C469,2129.66666 469.226188,2129.13095 469.678571,2128.67857 C470.130955,2128.22619 470.666664,2128 471.285714,2128 L503.285714,2128 C503.904765,2128 504.440474,2128.22619 504.892857,2128.67857 C505.34524,2129.13095 505.571429,2129.66666 505.571429,2130.28571 Z" id="fa-caret-down-copy-10" transform="translate(487.285714, 2138.285714) scale(1, -1) rotate(-180.000000) translate(-487.285714, -2138.285714) "></path>
        </g>
    </g>
</svg>