<?xml version="1.0" encoding="UTF-8"?>
<svg width="8px" height="14px" viewBox="0 0 8 14" version="1.1" xmlns="http://www.w3.org/2000/svg" xmlns:xlink="http://www.w3.org/1999/xlink">
    <!-- Generator: Sketch 46.2 (44496) - http://www.bohemiancoding.com/sketch -->
    <title>fa-angle-right</title>
    <desc>Created with Sketch.</desc>
    <defs></defs>
    <g id="Welcome" stroke="none" stroke-width="1" fill="none" fill-rule="evenodd">
        <g id="Desktop-HD-Copy-79" transform="translate(-249.000000, -369.000000)" fill="#FFFFFF">
            <path d="M256.738839,375.63519 C256.738839,375.528814 256.685651,375.409142 256.605869,375.32936 L250.409479,369.13297 C250.329697,369.053188 250.210025,369 250.103649,369 C249.997273,369 249.8776,369.053188 249.797818,369.13297 L249.13297,369.797818 C249.053188,369.8776 249,369.997273 249,370.103649 C249,370.210025 249.053188,370.329697 249.13297,370.409479 L254.358681,375.63519 L249.13297,380.860901 C249.053188,380.940683 249,381.060356 249,381.166731 C249,381.286404 249.053188,381.39278 249.13297,381.472562 L249.797818,382.13741 C249.8776,382.217192 249.997273,382.27038 250.103649,382.27038 C250.210025,382.27038 250.329697,382.217192 250.409479,382.13741 L256.605869,375.941021 C256.685651,375.861239 256.738839,375.741566 256.738839,375.63519 Z" id="fa-angle-right"></path>
        </g>
    </g>
</svg>